<svg viewBox="0 0 47 48" fill="none" xmlns="http://www.w3.org/2000/svg">
<path d="M0.371399 42.5455C0.371399 41.943 0.729571 41.4545 1.1714 41.4545H13.9714C14.4132 41.4545 14.7714 41.943 14.7714 42.5455V46.9091C14.7714 47.5116 14.4132 48 13.9714 48H1.1714C0.729572 48 0.371399 47.5116 0.371399 46.9091V42.5455Z" fill="#D4B580"/>
<path d="M17.1714 42.5455C17.1714 41.943 17.5296 41.4545 17.9714 41.4545H30.7714C31.2132 41.4545 31.5714 41.943 31.5714 42.5455V46.9091C31.5714 47.5116 31.2132 48 30.7714 48H17.9714C17.5296 48 17.1714 47.5116 17.1714 46.9091V42.5455Z" fill="#D4B580"/>
<path d="M33.9714 42.5455C33.9714 41.943 34.3296 41.4545 34.7714 41.4545H47.5714C48.0132 41.4545 48.3714 41.943 48.3714 42.5455V46.9091C48.3714 47.5116 48.0132 48 47.5714 48H34.7714C34.3296 48 33.9714 47.5116 33.9714 46.9091V42.5455Z" fill="#D4B580"/>
<path d="M0.371399 1.09091C0.371399 0.488417 0.729571 0 1.1714 0H13.9714C14.4132 0 14.7714 0.488417 14.7714 1.09091V5.45455C14.7714 6.05704 14.4132 6.54545 13.9714 6.54545H1.1714C0.729572 6.54545 0.371399 6.05704 0.371399 5.45455V1.09091Z" fill="#D4B580"/>
<path d="M17.1714 1.09091C17.1714 0.488417 17.5296 0 17.9714 0H30.7714C31.2132 0 31.5714 0.488417 31.5714 1.09091V5.45455C31.5714 6.05704 31.2132 6.54545 30.7714 6.54545H17.9714C17.5296 6.54545 17.1714 6.05704 17.1714 5.45455V1.09091Z" fill="#D4B580"/>
<path d="M33.9714 1.09091C33.9714 0.488417 34.3296 0 34.7714 0H47.5714C48.0132 0 48.3714 0.488417 48.3714 1.09091V5.45455C48.3714 6.05704 48.0132 6.54545 47.5714 6.54545H34.7714C34.3296 6.54545 33.9714 6.05704 33.9714 5.45455V1.09091Z" fill="#D4B580"/>
<path fill-rule="evenodd" clip-rule="evenodd" d="M0.371399 10.9091H48.3714V37.0909H0.371399V10.9091ZM1.9714 34.3636C1.9714 34.0624 2.15049 33.8182 2.3714 33.8182H7.9714C8.19231 33.8182 8.3714 34.0624 8.3714 34.3636C8.3714 34.6649 8.19231 34.9091 7.9714 34.9091H2.3714C2.15049 34.9091 1.9714 34.6649 1.9714 34.3636ZM9.5714 33.8182C9.35049 33.8182 9.1714 34.0624 9.1714 34.3636C9.1714 34.6649 9.35049 34.9091 9.5714 34.9091H10.3714C10.5923 34.9091 10.7714 34.6649 10.7714 34.3636C10.7714 34.0624 10.5923 33.8182 10.3714 33.8182H9.5714Z" fill="#D4B580"/>
</svg>
