<svg viewBox="0 0 48 48" fill="none" xmlns="http://www.w3.org/2000/svg">
<path d="M29.8574 38.6405C29.8574 41.6811 27.2881 44.1461 24.1188 44.1461C20.9494 44.1461 18.3801 41.6811 18.3801 38.6405C18.3801 35.5998 20.9494 33.1349 24.1188 33.1349C27.2881 33.1349 29.8574 35.5998 29.8574 38.6405Z" fill="#D4B580"/>
<path d="M33.8737 38.5854C33.8737 39.3456 33.2313 39.9618 32.439 39.9618C31.6467 39.9618 31.0043 39.3456 31.0043 38.5854C31.0043 37.8253 31.6467 37.209 32.439 37.209C33.2313 37.209 33.8737 37.8253 33.8737 38.5854Z" fill="#D4B580"/>
<path d="M25.4949 46.6236C25.4949 47.3838 24.8526 48 24.0602 48C23.2679 48 22.6256 47.3838 22.6256 46.6236C22.6256 45.8634 23.2679 45.2472 24.0602 45.2472C24.8526 45.2472 25.4949 45.8634 25.4949 46.6236Z" fill="#D4B580"/>
<path d="M25.4949 30.6574C25.4949 31.4176 24.8526 32.0338 24.0602 32.0338C23.2679 32.0338 22.6256 31.4176 22.6256 30.6574C22.6256 29.8972 23.2679 29.281 24.0602 29.281C24.8526 29.281 25.4949 29.8972 25.4949 30.6574Z" fill="#D4B580"/>
<path d="M17.2319 38.5854C17.2319 39.3456 16.5896 39.9618 15.7972 39.9618C15.0049 39.9618 14.3625 39.3456 14.3625 38.5854C14.3625 37.8253 15.0049 37.209 15.7972 37.209C16.5896 37.209 17.2319 37.8253 17.2319 38.5854Z" fill="#D4B580"/>
<path d="M30.0428 9.3595C30.0428 12.4002 27.4735 14.8651 24.3042 14.8651C21.1348 14.8651 18.5655 12.4002 18.5655 9.3595C18.5655 6.31884 21.1348 3.8539 24.3042 3.8539C27.4735 3.8539 30.0428 6.31884 30.0428 9.3595Z" fill="#D4B580"/>
<path d="M34.0591 9.30444C34.0591 10.0646 33.4167 10.6808 32.6244 10.6808C31.8321 10.6808 31.1897 10.0646 31.1897 9.30444C31.1897 8.54428 31.8321 7.92804 32.6244 7.92804C33.4167 7.92804 34.0591 8.54428 34.0591 9.30444Z" fill="#D4B580"/>
<path d="M25.6803 17.3426C25.6803 18.1028 25.038 18.719 24.2457 18.719C23.4533 18.719 22.811 18.1028 22.811 17.3426C22.811 16.5825 23.4533 15.9662 24.2457 15.9662C25.038 15.9662 25.6803 16.5825 25.6803 17.3426Z" fill="#D4B580"/>
<path d="M25.6803 1.3764C25.6803 2.13656 25.038 2.7528 24.2457 2.7528C23.4533 2.7528 22.811 2.13656 22.811 1.3764C22.811 0.616235 23.4533 0 24.2457 0C25.038 0 25.6803 0.616235 25.6803 1.3764Z" fill="#D4B580"/>
<path d="M17.4173 9.30444C17.4173 10.0646 16.775 10.6808 15.9826 10.6808C15.1903 10.6808 14.548 10.0646 14.548 9.30444C14.548 8.54428 15.1903 7.92804 15.9826 7.92804C16.775 7.92804 17.4173 8.54428 17.4173 9.30444Z" fill="#D4B580"/>
<path d="M15.4949 24C15.4949 27.0406 12.9256 29.5056 9.7562 29.5056C6.58684 29.5056 4.01756 27.0406 4.01756 24C4.01756 20.9593 6.58684 18.4944 9.7562 18.4944C12.9256 18.4944 15.4949 20.9593 15.4949 24Z" fill="#D4B580"/>
<path d="M19.5111 23.9449C19.5111 24.7051 18.8688 25.3213 18.0764 25.3213C17.2841 25.3213 16.6418 24.7051 16.6418 23.9449C16.6418 23.1847 17.2841 22.5685 18.0764 22.5685C18.8688 22.5685 19.5111 23.1847 19.5111 23.9449Z" fill="#D4B580"/>
<path d="M11.1324 31.9831C11.1324 32.7433 10.49 33.3595 9.6977 33.3595C8.90535 33.3595 8.26303 32.7433 8.26303 31.9831C8.26303 31.2229 8.90535 30.6067 9.6977 30.6067C10.49 30.6067 11.1324 31.2229 11.1324 31.9831Z" fill="#D4B580"/>
<path d="M11.1324 16.0169C11.1324 16.777 10.49 17.3933 9.6977 17.3933C8.90535 17.3933 8.26303 16.777 8.26303 16.0169C8.26303 15.2567 8.90535 14.6405 9.6977 14.6405C10.49 14.6405 11.1324 15.2567 11.1324 16.0169Z" fill="#D4B580"/>
<path d="M2.86932 23.9449C2.86932 24.7051 2.227 25.3213 1.43466 25.3213C0.64232 25.3213 0 24.7051 0 23.9449C0 23.1847 0.64232 22.5685 1.43466 22.5685C2.227 22.5685 2.86932 23.1847 2.86932 23.9449Z" fill="#D4B580"/>
<path d="M43.9837 24C43.9837 27.0406 41.4145 29.5056 38.2451 29.5056C35.0757 29.5056 32.5065 27.0406 32.5065 24C32.5065 20.9593 35.0757 18.4944 38.2451 18.4944C41.4145 18.4944 43.9837 20.9593 43.9837 24Z" fill="#D4B580"/>
<path d="M48 23.9449C48 24.7051 47.3577 25.3213 46.5653 25.3213C45.773 25.3213 45.1307 24.7051 45.1307 23.9449C45.1307 23.1848 45.773 22.5685 46.5653 22.5685C47.3577 22.5685 48 23.1848 48 23.9449Z" fill="#D4B580"/>
<path d="M39.6213 31.9831C39.6213 32.7433 38.9789 33.3595 38.1866 33.3595C37.3942 33.3595 36.7519 32.7433 36.7519 31.9831C36.7519 31.223 37.3942 30.6067 38.1866 30.6067C38.9789 30.6067 39.6213 31.223 39.6213 31.9831Z" fill="#D4B580"/>
<path d="M39.6213 16.0169C39.6213 16.777 38.9789 17.3933 38.1866 17.3933C37.3942 17.3933 36.7519 16.777 36.7519 16.0169C36.7519 15.2567 37.3942 14.6405 38.1866 14.6405C38.9789 14.6405 39.6213 15.2567 39.6213 16.0169Z" fill="#D4B580"/>
<path d="M31.3582 23.9449C31.3582 24.7051 30.7159 25.3213 29.9236 25.3213C29.1312 25.3213 28.4889 24.7051 28.4889 23.9449C28.4889 23.1848 29.1312 22.5685 29.9236 22.5685C30.7159 22.5685 31.3582 23.1848 31.3582 23.9449Z" fill="#D4B580"/>
</svg>
