<svg width="766" height="473" viewBox="0 0 766 473" fill="none" xmlns="http://www.w3.org/2000/svg">
<path opacity="0.5" d="M765.425 335.87C765.424 351.732 759.123 366.945 747.906 378.161C736.69 389.378 721.477 395.679 705.615 395.68H95.625C83.9117 395.68 72.6782 391.027 64.3956 382.744C56.1131 374.462 51.46 363.228 51.46 351.515C51.46 339.802 56.1131 328.568 64.3956 320.286C72.6782 312.003 83.9117 307.35 95.625 307.35H226.735V252.13H27.605C20.2837 252.13 13.2623 249.222 8.08533 244.045C2.90839 238.868 0 231.846 0 224.525C0 217.204 2.90839 210.182 8.08533 205.005C13.2623 199.828 20.2837 196.92 27.605 196.92H234.575C240.432 196.92 246.05 194.593 250.191 190.451C254.333 186.31 256.66 180.692 256.66 174.835C256.66 168.978 254.333 163.36 250.191 159.219C246.05 155.077 240.432 152.75 234.575 152.75H93.785C88.1717 152.75 82.7883 150.52 78.8191 146.551C74.8499 142.582 72.62 137.198 72.62 131.585C72.62 125.972 74.8499 120.588 78.8191 116.619C82.7883 112.65 88.1717 110.42 93.785 110.42H260.875C268.196 110.42 275.218 107.512 280.395 102.335C285.572 97.1577 288.48 90.1363 288.48 82.815C288.48 75.4937 285.572 68.4723 280.395 63.2953C275.218 58.1184 268.196 55.21 260.875 55.21H187.395C180.074 55.21 173.052 52.3016 167.875 47.1247C162.698 41.9477 159.79 34.9263 159.79 27.605C159.79 20.2837 162.698 13.2623 167.875 8.08531C173.052 2.90837 180.074 0 187.395 0H586.295C593.616 0 600.638 2.90837 605.815 8.08531C610.992 13.2623 613.9 20.2837 613.9 27.605C613.9 34.9263 610.992 41.9477 605.815 47.1247C600.638 52.3016 593.616 55.21 586.295 55.21H502.995C495.674 55.21 488.652 58.1184 483.475 63.2953C478.298 68.4723 475.39 75.4937 475.39 82.815C475.39 90.1363 478.298 97.1577 483.475 102.335C488.652 107.512 495.674 110.42 502.995 110.42H625.345C632.668 110.42 639.69 113.329 644.868 118.507C650.046 123.685 652.955 130.707 652.955 138.03C652.955 145.353 650.046 152.375 644.868 157.553C639.69 162.731 632.668 165.64 625.345 165.64H577.535C562.892 165.64 548.85 171.457 538.496 181.811C528.142 192.165 522.325 206.207 522.325 220.85C522.325 235.493 528.142 249.535 538.496 259.889C548.85 270.243 562.892 276.06 577.535 276.06H705.615C721.477 276.062 736.689 282.364 747.905 293.58C759.121 304.796 765.423 320.008 765.425 335.87V335.87Z" fill="#333333"/>
<path opacity="0.5" d="M718.529 138.03C718.529 122.783 706.169 110.424 690.923 110.424C675.676 110.424 663.317 122.783 663.317 138.03C663.317 153.276 675.676 165.636 690.923 165.636C706.169 165.636 718.529 153.276 718.529 138.03Z" fill="#333333"/>
<path opacity="0.5" d="M145.945 27.61C145.939 34.93 143.028 41.9485 137.851 47.1236C132.674 52.2986 125.655 55.2071 118.335 55.21H114.445C107.124 55.21 100.102 52.3016 94.9252 47.1247C89.7482 41.9477 86.8398 34.9263 86.8398 27.605C86.8398 20.2837 89.7482 13.2623 94.9252 8.08531C100.102 2.90837 107.124 7.24548e-08 114.445 7.24548e-08H118.335C121.961 -0.000262605 125.551 0.713711 128.901 2.10115C132.251 3.48859 135.295 5.52232 137.859 8.0862C140.423 10.6501 142.456 13.6939 143.844 17.0438C145.231 20.3937 145.945 23.9841 145.945 27.61V27.61Z" fill="#333333"/>
<path opacity="0.5" d="M727.145 422.84C727.145 425.492 726.091 428.036 724.216 429.911C722.341 431.786 719.797 432.84 717.145 432.84H376.025C373.373 432.84 370.829 433.893 368.954 435.769C367.078 437.644 366.025 440.188 366.025 442.84C366.025 445.492 367.078 448.036 368.954 449.911C370.829 451.786 373.373 452.84 376.025 452.84H547.665C550.317 452.84 552.861 453.893 554.736 455.769C556.611 457.644 557.665 460.188 557.665 462.84C557.665 465.492 556.611 468.036 554.736 469.911C552.861 471.786 550.317 472.84 547.665 472.84H167.465C164.813 472.84 162.269 471.786 160.394 469.911C158.518 468.036 157.465 465.492 157.465 462.84C157.465 460.188 158.518 457.644 160.394 455.769C162.269 453.893 164.813 452.84 167.465 452.84H250.815C253.467 452.84 256.011 451.786 257.886 449.911C259.761 448.036 260.815 445.492 260.815 442.84C260.815 440.188 259.761 437.644 257.886 435.769C256.011 433.893 253.467 432.84 250.815 432.84H56.9949C54.3427 432.84 51.7992 431.786 49.9238 429.911C48.0484 428.036 46.9949 425.492 46.9949 422.84C46.9949 420.188 48.0484 417.644 49.9238 415.769C51.7992 413.893 54.3427 412.84 56.9949 412.84H717.145C719.797 412.84 722.341 413.893 724.216 415.769C726.091 417.644 727.145 420.188 727.145 422.84Z" fill="#333333"/>
<path d="M334.393 204.842H98.3931V386.842H334.393V204.842Z" fill="#1B2238"/>
<path d="M316.393 368.842V222.842H116.393V368.842H316.393Z" fill="#1A1F33"/>
<path d="M98.3931 204.842H82.3931V386.842H98.3931V204.842Z" fill="#1B729E"/>
<path d="M482.165 295.342H416.393C397.615 295.342 382.393 310.564 382.393 329.342C382.393 348.119 397.615 363.342 416.393 363.342H482.165C500.943 363.342 516.165 348.119 516.165 329.342C516.165 310.564 500.943 295.342 482.165 295.342Z" fill="#E63E35"/>
<path d="M461.393 295.342H132.393C113.615 295.342 98.3931 310.564 98.3931 329.342C98.3931 348.119 113.615 363.342 132.393 363.342H461.393C480.171 363.342 495.393 348.119 495.393 329.342C495.393 310.564 480.171 295.342 461.393 295.342Z" fill="#F6EDE4"/>
<path d="M103.873 347.843C106.955 352.602 111.18 356.513 116.161 359.221C121.143 361.928 126.723 363.345 132.393 363.343H461.393C467.063 363.345 472.643 361.928 477.624 359.22C482.606 356.513 486.83 352.601 489.912 347.843H103.873Z" fill="#1B729E"/>
<path d="M674.393 262.842H438.393V386.842H674.393V262.842Z" fill="#1B2238"/>
<path d="M656.393 368.842V280.842H456.393V368.842H656.393Z" fill="#1A1F33"/>
<path d="M438.393 262.842H422.393V386.842H438.393V262.842Z" fill="#1B729E"/>
<path d="M483.393 386.842H467.393V422.842H483.393V386.842Z" fill="#593422"/>
<path d="M483.393 386.842H467.393V393.429H483.393V386.842Z" fill="#1A1F33"/>
<path d="M495.393 386.842H483.393V422.842H495.393V386.842Z" fill="#1A1F33"/>
<path d="M633.393 386.842H617.393V422.842H633.393V386.842Z" fill="#1B2238"/>
<path d="M633.393 386.842H617.393V393.429H633.393V386.842Z" fill="#1A1F33"/>
<path d="M645.393 386.842H633.393V422.842H645.393V386.842Z" fill="#1A1F33"/>
<path d="M143.393 386.842H127.393V422.842H143.393V386.842Z" fill="#593422"/>
<path d="M143.393 386.842H127.393V393.429H143.393V386.842Z" fill="#1A1F33"/>
<path d="M155.393 386.842H143.393V422.842H155.393V386.842Z" fill="#1A1F33"/>
<path d="M293.393 386.842H277.393V422.842H293.393V386.842Z" fill="#1A1F33"/>
<path d="M293.393 386.842H277.393V393.429H293.393V386.842Z" fill="#1A1F33"/>
<path d="M305.393 386.842H293.393V422.842H305.393V386.842Z" fill="#1A1F33"/>
<path d="M422.393 362.842H82.3931V386.842H422.393V362.842Z" fill="#1B729E"/>
<path d="M302.619 303.872C323.238 303.872 339.953 301.669 339.953 298.951C339.953 296.233 323.238 294.03 302.619 294.03C282 294.03 265.285 296.233 265.285 298.951C265.285 301.669 282 303.872 302.619 303.872Z" fill="#1B2238"/>
<path d="M213.566 305.184C234.185 305.184 250.9 302.981 250.9 300.263C250.9 297.545 234.185 295.342 213.566 295.342C192.947 295.342 176.232 297.545 176.232 300.263C176.232 302.981 192.947 305.184 213.566 305.184Z" fill="#1B2238"/>
<path d="M322.544 257.587C318.441 253.018 313.465 249.317 307.91 246.7C302.355 244.083 296.332 242.604 290.197 242.35C290.075 242.35 289.955 242.35 289.835 242.35L289.829 242.341H238.252L274.952 297.841H326.733L326.727 297.832C328.56 297.851 330.332 297.174 331.684 295.937C333.037 294.7 333.87 292.996 334.015 291.169C334.475 285.086 333.695 278.974 331.723 273.201C329.752 267.429 326.629 262.117 322.544 257.587V257.587Z" fill="#F6EDE4"/>
<path d="M242.435 282.599C246.538 287.167 251.514 290.869 257.069 293.486C262.624 296.102 268.647 297.581 274.782 297.836C276.664 297.929 278.509 297.285 279.924 296.041C281.34 294.796 282.214 293.049 282.363 291.171C282.822 285.088 282.042 278.974 280.069 273.202C278.097 267.429 274.973 262.117 270.887 257.587C266.784 253.018 261.808 249.316 256.253 246.7C250.698 244.083 244.675 242.604 238.54 242.35C236.658 242.256 234.813 242.9 233.398 244.145C231.982 245.389 231.108 247.136 230.959 249.015C230.5 255.098 231.28 261.211 233.253 266.984C235.225 272.756 238.349 278.069 242.435 282.599V282.599Z" fill="#EFF9E1"/>
<path d="M282.415 290.218C282.398 290.536 282.391 290.854 282.367 291.171C282.22 293.019 281.37 294.741 279.991 295.981C278.612 297.221 276.81 297.885 274.956 297.835V297.843H326.736L326.731 297.834C328.564 297.853 330.336 297.176 331.689 295.939C333.041 294.702 333.874 292.998 334.019 291.171C334.043 290.854 334.05 290.536 334.067 290.218H282.415Z" fill="#A4B783"/>
<path d="M235.104 257.587C231.001 253.018 226.025 249.317 220.47 246.7C214.914 244.083 208.891 242.604 202.756 242.35C202.635 242.35 202.515 242.35 202.394 242.35L202.388 242.341H150.815L187.515 297.841H239.295L239.29 297.832C241.123 297.851 242.895 297.174 244.247 295.937C245.6 294.7 246.433 292.996 246.578 291.169C247.037 285.086 246.257 278.973 244.285 273.201C242.313 267.429 239.189 262.117 235.104 257.587V257.587Z" fill="#F6EDE4"/>
<path d="M154.995 282.599C159.098 287.167 164.074 290.869 169.629 293.486C175.184 296.102 181.207 297.581 187.342 297.836C189.224 297.929 191.069 297.285 192.484 296.041C193.9 294.796 194.774 293.049 194.923 291.171C195.382 285.088 194.602 278.974 192.629 273.202C190.657 267.429 187.533 262.117 183.447 257.587C179.344 253.018 174.368 249.317 168.813 246.7C163.258 244.083 157.235 242.604 151.1 242.35C149.218 242.256 147.373 242.9 145.957 244.145C144.542 245.389 143.667 247.136 143.518 249.015C143.059 255.098 143.839 261.211 145.812 266.984C147.785 272.757 150.909 278.069 154.995 282.599Z" fill="#EFF9E1"/>
<path d="M194.971 290.218C194.954 290.536 194.947 290.854 194.923 291.171C194.776 293.019 193.926 294.741 192.547 295.981C191.168 297.221 189.366 297.884 187.512 297.835V297.843H239.292L239.287 297.834C241.12 297.853 242.892 297.176 244.244 295.939C245.597 294.702 246.43 292.998 246.575 291.171C246.598 290.854 246.605 290.536 246.622 290.218H194.971Z" fill="#A4B783"/>
<path d="M521.289 105.76C522.133 99.8054 518.9 93.7034 513.199 92.0064C507.524 90.3064 501.123 95.0064 500.013 102.662C499.812 104.027 499.801 105.412 499.98 106.779C500.11 120.636 502.877 134.341 508.135 147.162L518.263 144.391C516.695 132.566 517.416 120.549 520.388 108.996C520.826 107.961 521.128 106.873 521.289 105.76Z" fill="#1C4458"/>
<path d="M518.728 116.332C519.418 115.255 520.469 114.458 521.692 114.083C522.916 113.708 524.232 113.779 525.408 114.285C527.742 115.415 528.419 118.826 526.508 121.626C526.169 122.126 525.763 122.577 525.301 122.965C521.077 127.478 521.18 131.872 515.792 134.4C514.974 133.103 514.158 131.807 513.342 130.51C517.462 127.05 515.679 122.117 518.057 117.643C518.224 117.179 518.449 116.739 518.728 116.332V116.332Z" fill="#1A1F33"/>
<path d="M513.199 91.6854C511.901 91.4039 510.557 91.4004 509.257 91.6752C507.958 91.9499 506.73 92.4966 505.657 93.2794C506.497 92.9523 507.398 92.8157 508.297 92.8794C514.256 93.3794 517.902 99.8084 517.058 105.763C516.897 106.876 516.595 107.964 516.158 108.999C513.186 120.552 512.465 132.569 514.033 144.394L507.721 146.121C507.86 146.469 507.994 146.821 508.136 147.165L518.264 144.394C516.695 132.569 517.417 120.552 520.389 108.999C520.826 107.964 521.129 106.876 521.289 105.763C522.133 99.8054 518.9 93.3804 513.199 91.6854Z" fill="#1A1F33"/>
<path d="M501.549 165.94H524.695C531.648 160.758 536.331 151.059 536.331 139.94H489.915C489.915 151.059 494.596 160.758 501.549 165.94Z" fill="#F9F9F9"/>
<path d="M504.976 105.899L502.735 106.437L504.825 107.475C504.938 107.531 505.065 107.558 505.191 107.552C505.318 107.546 505.441 107.508 505.549 107.441C505.657 107.375 505.746 107.281 505.808 107.17C505.869 107.06 505.902 106.935 505.902 106.808V106.628C505.902 106.514 505.876 106.402 505.827 106.3C505.777 106.198 505.705 106.109 505.616 106.039C505.527 105.968 505.423 105.919 505.312 105.895C505.201 105.871 505.086 105.872 504.976 105.899Z" fill="url(#paint0_linear)"/>
<path d="M510.909 102.637L509.091 101.221L509.583 103.502C509.609 103.626 509.667 103.741 509.751 103.836C509.834 103.932 509.941 104.004 510.06 104.047C510.179 104.09 510.308 104.101 510.433 104.08C510.558 104.059 510.676 104.007 510.775 103.928L510.916 103.816C511.004 103.745 511.076 103.655 511.125 103.553C511.174 103.45 511.199 103.338 511.198 103.225C511.197 103.111 511.171 102.999 511.121 102.897C511.071 102.796 510.998 102.706 510.909 102.637V102.637Z" fill="url(#paint1_linear)"/>
<path d="M508.643 120.601L506.407 121.16L508.507 122.179C508.621 122.234 508.747 122.26 508.874 122.253C509.001 122.245 509.123 122.206 509.23 122.138C509.337 122.07 509.426 121.976 509.486 121.865C509.547 121.754 509.578 121.629 509.577 121.502V121.322C509.576 121.208 509.549 121.096 509.499 120.995C509.448 120.893 509.375 120.804 509.285 120.734C509.195 120.665 509.091 120.617 508.979 120.594C508.868 120.571 508.753 120.573 508.643 120.601V120.601Z" fill="url(#paint2_linear)"/>
<path d="M518.728 116.332C518.451 116.739 518.227 117.18 518.061 117.643C516.857 119.906 515.441 122.049 513.83 124.043V131.976C516.416 130.518 518.86 128.821 521.13 126.908C521.27 124.727 521.414 122.208 521.414 121.091C521.414 119.754 522.614 116.302 523.552 113.821C522.602 113.803 521.663 114.023 520.82 114.462C519.977 114.901 519.258 115.544 518.728 116.332V116.332Z" fill="#1A1F33"/>
<path d="M520.827 139.94C521.312 142.317 521.557 144.737 521.558 147.162C521.595 153.806 519.73 160.322 516.184 165.94H524.831C531.784 160.758 536.467 151.059 536.467 139.94H520.827Z" fill="#1A1F33"/>
<path d="M518.069 164.94H438.393V176.939H518.069V164.94Z" fill="#1C4458"/>
<path d="M583.068 164.94H518.068V176.939H583.068V164.94Z" fill="#1B2238"/>
<defs>
<linearGradient id="paint0_linear" x1="502.735" y1="105.878" x2="504.119" y2="108.496" gradientUnits="userSpaceOnUse">
<stop offset="0.265625" stop-color="#1B729E"/>
<stop offset="0.869792" stop-color="#289CD7"/>
</linearGradient>
<linearGradient id="paint1_linear" x1="509.091" y1="101.221" x2="511.829" y2="103.231" gradientUnits="userSpaceOnUse">
<stop offset="0.265625" stop-color="#1B729E"/>
<stop offset="0.869792" stop-color="#289CD7"/>
</linearGradient>
<linearGradient id="paint2_linear" x1="506.407" y1="120.578" x2="507.791" y2="123.197" gradientUnits="userSpaceOnUse">
<stop offset="0.265625" stop-color="#1B729E"/>
<stop offset="0.869792" stop-color="#289CD7"/>
</linearGradient>
</defs>
</svg>
