<?xml version="1.0" encoding="utf-8"?>
<!-- Generator: Adobe Illustrator 21.0.0, SVG Export Plug-In . SVG Version: 6.00 Build 0)  -->
<svg version="1.1" id="Capa_1" xmlns="http://www.w3.org/2000/svg" xmlns:xlink="http://www.w3.org/1999/xlink" x="0px" y="0px"
	 viewBox="0 0 510.9 510.9" style="enable-background:new 0 0 510.9 510.9;" xml:space="preserve">
<style type="text/css">
	.st0{stroke:#000000;stroke-width:11.3386;stroke-miterlimit:10;}
</style>
<g>
	<path class="st0" d="M462.1,100.5H129.3c-3.9,0-7.1,3.4-7.1,7.5s3.2,7.5,7.1,7.5h332.8c10.9,0,19.7,9.4,19.7,20.9v159.7
		c0,11.5-8.8,20.9-19.7,20.9h-16.9v-48.9c0-4.1-3.2-7.5-7.1-7.5H72.8c-3.9,0-7.1,3.4-7.1,7.5V317H48.8c-10.9,0-19.7-9.4-19.7-20.9
		V136.4c0-11.5,8.8-20.9,19.7-20.9h52.3c3.9,0,7.1-3.4,7.1-7.5s-3.2-7.5-7.1-7.5H48.8c-18.6,0-33.8,16.1-33.8,35.9v159.7
		c0,19.8,15.2,35.9,33.8,35.9h73.5c3.9,0,7.1-3.4,7.1-7.5c0-4.1-3.2-7.5-7.1-7.5H79.8v-13.2h280.6c3.9,0,7.1-3.4,7.1-7.5
		s-3.2-7.5-7.1-7.5H79.8v-13.2h351.3v13.2h-42.5c-3.9,0-7.1,3.4-7.1,7.5s3.2,7.5,7.1,7.5h42.5V317H150.5c-3.9,0-7.1,3.4-7.1,7.5
		c0,4.1,3.2,7.5,7.1,7.5h311.6c18.6,0,33.8-16.1,33.8-35.9V136.4C495.9,116.6,480.7,100.5,462.1,100.5z"/>
	<path class="st0" d="M438.1,161.5c3.9,0,7.1-3.4,7.1-7.5s-3.2-7.5-7.1-7.5h-20.9c-3.9,0-7.1,3.4-7.1,7.5s3.2,7.5,7.1,7.5H438.1z"/>
	<path class="st0" d="M385.1,161.5c3.9,0,7.1-3.4,7.1-7.5s-3.2-7.5-7.1-7.5H251.4c-3.9,0-7.1,3.4-7.1,7.5s3.2,7.5,7.1,7.5H385.1z"/>
	<path class="st0" d="M147.8,352.1c-3.9,0-7.1,3.4-7.1,7.5c0,0.2-0.2,22.5-19.8,37.2c-3.2,2.4-3.9,7.1-1.7,10.5
		c1.4,2.1,3.6,3.2,5.8,3.2c1.4,0,2.8-0.5,4.1-1.4c25.5-19.2,25.8-48.2,25.8-49.5C154.9,355.4,151.7,352.1,147.8,352.1z"/>
	<path class="st0" d="M198.3,352.1c-3.9,0-7.1,3.4-7.1,7.5v43.4c0,4.1,3.2,7.5,7.1,7.5c3.9,0,7.1-3.4,7.1-7.5v-43.4
		C205.4,355.4,202.2,352.1,198.3,352.1z"/>
	<path class="st0" d="M257.4,352.1c-3.9,0-7.1,3.4-7.1,7.5v43.4c0,4.1,3.2,7.5,7.1,7.5c3.9,0,7.1-3.4,7.1-7.5v-43.4
		C264.5,355.4,261.3,352.1,257.4,352.1z"/>
	<path class="st0" d="M390,396.8c-19.3-14.6-19.8-36.3-19.8-37.3c0-4.1-3.2-7.5-7.1-7.5c-3.9,0-7.1,3.4-7.1,7.5
		c0,1.2,0.3,30.2,25.8,49.5c1.2,0.9,2.7,1.4,4.1,1.4c2.2,0,4.4-1.1,5.8-3.2C393.9,403.9,393.2,399.2,390,396.8z"/>
	<path class="st0" d="M312.6,352.1c-3.9,0-7.1,3.4-7.1,7.5v43.4c0,4.1,3.2,7.5,7.1,7.5c3.9,0,7.1-3.4,7.1-7.5v-43.4
		C319.6,355.4,316.5,352.1,312.6,352.1z"/>
</g>
</svg>
