<svg id="Capa_1" enable-background="new 0 0 512.003 512.003" viewBox="0 0 512.003 512.003" xmlns="http://www.w3.org/2000/svg"><g><path d="m151.011 361h89.993v29h-89.993z"/><path d="m271.001 395c0 13.785-11.214 25-24.998 25h-99.992c-13.784 0-24.998-11.215-24.998-25v-63h-89.993v33c0 43.1 23.837 80.732 59.014 100.422l-12.434 24.87c-3.705 7.409-.702 16.42 6.707 20.124 7.404 3.704 16.417.704 20.122-6.708l13.58-27.163c8.967 2.252 18.345 3.455 28 3.455h219.982c9.655 0 19.034-1.203 28-3.455l13.58 27.163c2.628 5.257 7.924 8.295 13.427 8.295 11.084 0 18.398-11.721 13.403-21.711l-12.434-24.87c35.177-19.69 59.014-57.322 59.014-100.422v-33h-209.98z"/><path d="m151.011 240h89.993v91h-89.993z"/><path d="m121.013 240h-85.993c-19.298 0-34.997 15.7-34.997 35 0 21.182-.211 22.502.7 27h120.29z"/><path d="m476.984 240h-11.999v-225c0-8.284-6.715-15-14.999-15h-133.989c-8.284 0-14.999 6.716-14.999 15v39.509c-34.189 6.968-59.995 37.271-59.995 73.491 0 8.284 6.715 15 14.999 15h14.999c0 8.284 6.715 15 14.999 15s14.999-6.716 14.999-15h29.998c0 8.284 6.715 15 14.999 15s14.999-6.716 14.999-15h14.999c8.284 0 14.999-6.716 14.999-15 0-36.219-25.806-66.522-59.995-73.491v-24.509h103.992v210h-163.989v62h240.281c.906-4.47.7-5.398.7-27-.001-19.3-15.699-35-34.998-35z"/><circle cx="256.002" cy="195" r="14.999"/><circle cx="315.997" cy="195" r="14.999"/><circle cx="375.992" cy="195" r="14.999"/></g></svg>
