<?xml version="1.0" encoding="iso-8859-1"?>
<!-- Generator: Adobe Illustrator 19.0.0, SVG Export Plug-In . SVG Version: 6.00 Build 0)  -->
<svg version="1.1" id="Layer_1" xmlns="http://www.w3.org/2000/svg" xmlns:xlink="http://www.w3.org/1999/xlink" x="0px" y="0px"
	 viewBox="0 0 512 512" style="enable-background:new 0 0 512 512;fill:#D4B580;" xml:space="preserve">
<g>
	<g>
		<path d="M470.524,244.523v37.045c-12.242-8.34-25.308-14.967-38.857-19.901V72.381C431.667,32.47,399.197,0,359.286,0
			c-39.911,0-72.381,32.47-72.381,72.381h30c0-23.369,19.012-42.381,42.381-42.381c23.369,0,42.381,19.012,42.381,42.381v47.3
			H225.095v-47.3C225.095,32.47,192.625,0,152.714,0c-39.911,0-72.381,32.47-72.381,72.381h30c0-23.369,19.012-42.381,42.381-42.381
			c23.369,0,42.381,19.012,42.381,42.381v263.414c-16.929,6.642-35.125,10.122-53.857,10.122c-37.31,0-72.497-13.786-99.762-38.937
			v-62.457h-30V512h489.048V244.523H470.524z M225.095,149.681h176.572v61.81H225.095V149.681z M225.096,241.49h176.571v12.15
			c-55.055-9.675-113.833,6.694-156.273,49.135c-6.318,6.318-13.114,11.984-20.298,16.98V241.49z M470.524,398.487L470.524,398.487
			c-57.707-53.182-147.925-51.789-203.917,4.202c-34.564,34.564-79.966,51.846-125.368,51.846c-34.896,0-69.787-10.221-99.762-30.64
			v-38.216c57.708,53.183,147.926,51.79,203.917-4.202c61.131-61.131,156.156-68.19,225.13-21.206V398.487z"/>
	</g>
</g>
<g>
</g>
<g>
</g>
<g>
</g>
<g>
</g>
<g>
</g>
<g>
</g>
<g>
</g>
<g>
</g>
<g>
</g>
<g>
</g>
<g>
</g>
<g>
</g>
<g>
</g>
<g>
</g>
<g>
</g>
</svg>
