<svg id="Capa_1" style="fill:#D4B580;" enable-background="new 0 0 512 512" height="512" viewBox="0 0 512 512" width="512" xmlns="http://www.w3.org/2000/svg"><g><path d="m364.11 172.29c-9.198 11.781-27.13 11.771-36.32 0-8.843-11.298-26.91-4.92-26.91 9.26 0 7.117 3.893 10.093 8.25 14.45h73.66c1.901-2.404 8.24-5.964 8.24-14.45 0-14.187-18.082-20.554-26.92-9.26z"/><path d="m93.34 196c-14.974-44.343 38.942-78.337 72.69-48.05 28.486-25.596 75.07-5.627 75.07 33.6 0 4.99-.81 9.86-2.36 14.45h34.54c-9.905-28.961 11.721-59.5 42.64-59.5 11.25 0 21.84 4.1 30.03 11.45 28.559-25.63 75.08-5.552 75.08 33.6 0 4.99-.8 9.86-2.36 14.45 46.681.364 50.793-.876 62.33 1.31v-121.31c0-24.81-20.19-45-45-45h-360c-24.81 0-45 20.19-45 45v121.31c11.589-2.195 16.906-.956 62.34-1.31z"/><path d="m184.19 172.29c-9.219 11.782-27.119 11.77-36.33 0-8.842-11.299-26.91-4.919-26.91 9.26 0 7.002 3.73 9.93 8.25 14.45h73.66c1.901-2.404 8.24-5.964 8.24-14.45 0-14.188-18.071-20.553-26.91-9.26z"/><path d="m467 226h-422c-24.813 0-45 20.187-45 45v45h512v-45c0-24.813-20.187-45-45-45z"/><path d="m0 406c0 8.284 6.716 15 15 15h16v45c0 8.284 6.716 15 15 15h60c8.284 0 15-6.716 15-15v-45h270v45c0 8.284 6.716 15 15 15h60c8.284 0 15-6.716 15-15v-45h16c8.284 0 15-6.716 15-15v-60h-512z"/></g></svg>