<?xml version="1.0" encoding="iso-8859-1"?>
<!-- Generator: Adobe Illustrator 18.1.1, SVG Export Plug-In . SVG Version: 6.00 Build 0)  -->
<svg version="1.1" id="Capa_1" xmlns="http://www.w3.org/2000/svg" xmlns:xlink="http://www.w3.org/1999/xlink" x="0px" y="0px"
	 viewBox="0 0 464.471 464.471" style="enable-background:new 0 0 464.471 464.471;fill:#D4B580;" xml:space="preserve">
<g>
	<g id="Layer_1_84_">
		<g>
			<path d="M121.975,90.48C127.933,67.912,144.019,0.292,95.865,0C47.709,0.293,63.797,67.912,69.752,90.48H121.975z"/>
			<path d="M119.567,216.81c5.502-11.29,9.897-24.959,9.897-24.959l0.011-24.076l-1.423-5.414
				c-2.829-10.705-4.882-20.547-6.168-29.545H67.886c-1.969,6.025-4.59,13.396-7.244,19.066
				c-8.473,18.09-19.025,40.596-19.025,71.658c0,45.158,14.44,85.561,35.926,100.537c0.578,0.396,1.258,0.617,1.948,0.617h16.374
				h6.032c-1.513-10.166-2.313-20.861-2.313-31.887C99.584,259.474,110.659,235.816,119.567,216.81z"/>
			<path d="M120.266,103.838H71.462l-0.161,15.621h49.127l-0.021-1.629c-0.149-3.227-0.184-6.316-0.093-9.279L120.266,103.838z"/>
			<path d="M258.341,90.48c5.96-22.568,22.045-90.188-26.105-90.48c-48.149,0.293-32.065,67.912-26.105,90.48H258.341z"/>
			<path d="M207.674,119.459h49.122l-0.012-1.629c-0.161-3.227-0.194-6.316-0.101-9.279l-0.051-4.713h-48.793l-0.051,4.713
				c0.093,2.963,0.061,6.053-0.101,9.279L207.674,119.459z"/>
			<path d="M394.72,90.48C400.673,67.912,416.763,0.292,368.609,0c-48.156,0.293-32.072,67.912-26.113,90.48H394.72z"/>
			<path d="M403.829,151.882c-2.653-5.67-5.276-13.041-7.245-19.066h-53.997c-1.285,8.998-3.339,18.84-6.168,29.545l-1.425,5.414
				l-0.007,24.076c0,0,5.707,16.669,9.916,24.959c8.909,19.006,19.985,42.664,19.985,75.998c0,11.025-0.802,21.721-2.316,31.887
				h6.036h16.371c0.69,0,1.372-0.221,1.949-0.617c21.485-14.977,35.926-55.379,35.926-100.537
				C422.854,192.478,412.302,169.972,403.829,151.882z"/>
			<path d="M344.044,119.459h49.127l-0.161-15.621h-48.805l-0.049,4.713c0.091,2.963,0.059,6.053-0.091,9.279L344.044,119.459z"/>
			<path d="M190.164,159.752c5.949-22.57,22.044-90.195-26.117-90.482c-48.148,0.287-32.066,67.912-26.104,90.482H190.164z"/>
			<path d="M187.756,287.326c2.002-4.279,4.352-10.479,6.786-17.918l3.072-10.225l0.05-20.895l-1.424-5.414
				c-2.957-11.203-5.068-21.449-6.345-30.791h-53.819c-1.974,6.027-4.594,13.393-7.244,19.063
				c-8.474,18.096-19.025,40.6-19.025,71.662c0,45.16,14.44,85.563,35.924,100.539c0.573,0.396,1.254,0.613,1.949,0.613h16.367
				h5.848c-1.392-9.797-2.133-20.068-2.133-30.643C167.761,329.984,178.847,306.328,187.756,287.326z"/>
			<path d="M188.444,173.107H139.65l-0.16,15.621h49.126l-0.001-0.09c-0.173-3.416-0.216-6.691-0.107-9.816L188.444,173.107z"/>
			<path d="M326.53,159.752c5.961-22.57,22.044-90.195-26.105-90.482c-48.16,0.287-32.065,67.912-26.116,90.482H326.53z"/>
			<path d="M328.396,202.084h-53.819c-1.276,9.342-3.388,19.588-6.345,30.791l-1.424,5.414l0.009,20.795l3.112,10.324
				c2.436,7.439,4.787,13.639,6.787,17.918c8.908,19.002,19.993,42.658,19.993,75.992c0,10.574-0.74,20.846-2.132,30.643h5.847
				h16.368c0.693,0,1.377-0.217,1.948-0.613c21.483-14.977,35.925-55.379,35.925-100.539c0-31.063-10.551-53.566-19.025-71.662
				C332.99,215.476,330.367,208.111,328.396,202.084z"/>
			<path d="M275.855,188.728h49.126l-0.16-15.621h-48.794l-0.063,5.715c0.108,3.125,0.063,6.4-0.106,9.816L275.855,188.728z"/>
			<path d="M258.341,230.263c5.96-22.576,22.045-90.189-26.105-90.486c-48.149,0.297-32.065,67.91-26.105,90.486L258.341,230.263
				L258.341,230.263z"/>
			<path d="M260.207,272.591h-55.943c-1.979,6.027-4.594,13.404-7.249,19.074c-8.48,18.086-19.02,40.6-19.02,71.652
				c0,45.16,14.438,85.572,35.925,100.545c0.566,0.4,1.247,0.609,1.948,0.609h16.367h16.366c0.702,0,1.383-0.209,1.949-0.609
				c21.485-14.973,35.925-55.385,35.925-100.545c0-31.053-10.54-53.566-19.018-71.652
				C264.799,285.996,262.186,278.619,260.207,272.591z"/>
			<polygon points="207.674,259.246 256.796,259.246 256.632,243.615 207.84,243.615 			"/>
		</g>
	</g>
</g>
<g>
</g>
<g>
</g>
<g>
</g>
<g>
</g>
<g>
</g>
<g>
</g>
<g>
</g>
<g>
</g>
<g>
</g>
<g>
</g>
<g>
</g>
<g>
</g>
<g>
</g>
<g>
</g>
<g>
</g>
</svg>
