<svg  height="409pt" style="fill:#D4B580;" viewBox="0 -58 409.6 409" width="409pt" xmlns="http://www.w3.org/2000/svg"><path d="m402.773438 20.78125h-27.308594v-13.65625c0-3.769531-3.050782-6.824219-6.824219-6.824219h-34.132813c-3.773437 0-6.828124 3.054688-6.828124 6.824219v47.789062h-27.304688v-27.308593c0-3.769531-3.054688-6.824219-6.828125-6.824219h-20.480469c-3.773437 0-6.828125 3.054688-6.828125 6.824219v27.308593h-116.050781v-27.308593c0-3.769531-3.054688-6.824219-6.828125-6.824219h-20.480469c-3.773437 0-6.824218 3.054688-6.824218 6.824219v27.308593h-34.132813v-47.789062c0-3.769531-3.054687-6.824219-6.828125-6.824219h-34.132812c-3.773438 0-6.828126 3.054688-6.828126 6.824219v13.65625h-27.304687c-3.773437 0-6.828125 3.054688-6.828125 6.824219v68.269531c0 3.769531 3.054688 6.824219 6.828125 6.824219h27.304687v13.652343c0 3.773438 3.054688 6.828126 6.828126 6.828126h34.132812c3.773438 0 6.828125-3.054688 6.828125-6.828126v-47.785156h34.132813v116.722656h-17.734376c-12.808593 0-23.226562 10.417969-23.226562 23.222657 0 12.808593 10.417969 23.226562 23.226562 23.226562h17.734376v21.148438h-81.921876c-3.773437 0-6.824218 3.054687-6.824218 6.828125v27.304687c0 3.769531 3.050781 6.828125 6.824218 6.828125h348.160157c3.773437 0 6.828125-3.058594 6.828125-6.828125v-27.304687c0-3.773438-3.054688-6.828125-6.828125-6.828125h-81.917969v-21.148438h10.90625c12.804688 0 23.226562-10.417969 23.226562-23.226562 0-12.804688-10.421874-23.222657-23.226562-23.222657h-10.90625v-116.722656h27.304688v47.785156c0 3.773438 3.054687 6.828126 6.828124 6.828126h34.132813c3.773437 0 6.824219-3.054688 6.824219-6.828126v-13.652343h27.308594c3.773437 0 6.828124-3.054688 6.828124-6.824219v-68.269531c0-3.769531-3.054687-6.824219-6.828124-6.824219zm-389.121094 68.265625v-54.613281h20.480468v54.613281zm54.613281 20.480469h-20.480469v-95.574219h20.480469zm197.972656-40.960938v116.722656h-116.050781v-116.722656zm-136.53125-34.132812h6.828125v150.855468h-6.828125zm0 197.304687h6.828125v21.148438h-6.828125zm81.917969 21.148438v-21.148438h54.613281v21.148438zm-13.652344 0h-47.785156v-21.148438h47.785156zm-157.011718 27.304687v-13.652344h157.011718v13.652344zm334.503906 0h-163.839844v-13.652344h163.839844zm-88.746094-27.304687h-6.824219v-21.148438h6.824219zm34.132812-44.375c0 5.28125-4.292968 9.574219-9.570312 9.574219h-212.960938c-5.28125 0-9.574218-4.292969-9.574218-9.574219 0-5.277344 4.292968-9.570313 9.574218-9.570313h212.957032c5.28125 0 9.574218 4.292969 9.574218 9.570313zm-40.957031-23.222657v-150.855468h6.824219v150.855468zm81.917969-75.761718h-20.480469v-95.574219h20.480469zm34.132812-20.480469h-20.480468v-54.613281h20.480468zm0 0"/></svg>