<?xml version="1.0" encoding="iso-8859-1"?>
<!-- Generator: Adobe Illustrator 19.0.0, SVG Export Plug-In . SVG Version: 6.00 Build 0)  -->
<svg version="1.1" id="Capa_1" xmlns="http://www.w3.org/2000/svg" xmlns:xlink="http://www.w3.org/1999/xlink" x="0px" y="0px"
	 viewBox="0 0 512 512" style="enable-background:new 0 0 512 512;" xml:space="preserve">
<g>
	<g>
		<path d="M512,391h-46.427c2.219-6.258,3.427-12.991,3.427-20V137c0-33.084-26.916-60-60-60h-20V60c0-33.084-26.916-60-60-60h-29
			c-33.084,0-60,26.916-60,60v17h-20c-33.084,0-60,26.916-60,60v234c0,7.009,1.208,13.742,3.427,20H146.82
			c-14.037,0-26.82-10.895-26.82-22.857V63.054c0-16.551-7.615-32.949-20.893-44.988C86.445,6.584,69.64,0,53,0H0v40h53
			c13.626,0,27,11.419,27,23.054v305.089C80,402.215,110.6,431,146.82,431h16.972c-2.451,6.539-3.792,13.616-3.792,21
			c0,33.084,26.916,60,60,60s60-26.916,60-60c0-7.384-1.341-14.461-3.792-21h77.584c-2.451,6.539-3.792,13.616-3.792,21
			c0,33.084,26.916,60,60,60s60-26.916,60-60c0-7.384-1.341-14.461-3.792-21H512V391z M280,60c0-11.028,8.972-20,20-20h29
			c11.028,0,20,8.972,20,20v17h-69V60z M220,472c-11.028,0-20-8.972-20-20s8.972-20,20-20s20,8.972,20,20S231.028,472,220,472z
			 M220,391c-11.028,0-20-8.972-20-20V137c0-11.028,8.972-20,20-20h20v182h40V117h69v182h40V117h20c11.028,0,20,8.972,20,20v234
			c0,11.028-8.972,20-20,20H220z M410,472c-11.028,0-20-8.972-20-20s8.972-20,20-20s20,8.972,20,20S421.028,472,410,472z"/>
	</g>
</g>
<g>
</g>
<g>
</g>
<g>
</g>
<g>
</g>
<g>
</g>
<g>
</g>
<g>
</g>
<g>
</g>
<g>
</g>
<g>
</g>
<g>
</g>
<g>
</g>
<g>
</g>
<g>
</g>
<g>
</g>
</svg>
