<?xml version="1.0" encoding="utf-8"?>
<!-- Generator: Adobe Illustrator 21.0.0, SVG Export Plug-In . SVG Version: 6.00 Build 0)  -->
<svg version="1.1" id="Layer_1" xmlns="http://www.w3.org/2000/svg" xmlns:xlink="http://www.w3.org/1999/xlink" x="0px" y="0px"
	 viewBox="0 0 64 64" style="enable-background:new 0 0 64 64;" xml:space="preserve">
<style type="text/css">
	.st0{stroke:#000000;stroke-width:1.7008;stroke-miterlimit:10;}
</style>
<g id="Paper_towel">
	<path class="st0" d="M49,1H15c-2.8,0-5,2.2-5,5v30c0,0.6,0.4,1,1,1s1-0.4,1-1v-3h4v26c0,0.6,0.4,1,1,1c0.2,0,0.4-0.1,0.6-0.2
		c0.3-0.2,7.9-5.9,13.7-0.1c1.9,2,4.6,3.2,7.4,3.2c3.2-0.1,6.3-1.2,8.9-3.1c0.2-0.2,0.4-0.5,0.4-0.8V33h4v3c0,0.6,0.4,1,1,1
		s1-0.4,1-1V6C54,3.2,51.8,1,49,1z M12,25v-3h40v3H12z M12,6c0-1.7,1.3-3,3-3h34c1.7,0,3,1.3,3,3v14H12V6z M12,27h4v4h-4V27z
		 M46,58.5c-1.7,1.1-8.2,4.9-13.3-0.2C27.4,53,21,55.6,18,57.2V27h28V58.5z M48,27h4v4h-4V27z"/>
	<path class="st0" d="M23,5h-8c-0.6,0-1,0.4-1,1s0.4,1,1,1h8c0.6,0,1-0.4,1-1S23.6,5,23,5z"/>
	<path class="st0" d="M27,5h-1c-0.6,0-1,0.4-1,1s0.4,1,1,1h1c0.6,0,1-0.4,1-1S27.6,5,27,5z"/>
</g>
</svg>
