<svg id="Layer_3" enable-background="new 0 0 64 64" viewBox="0 0 64 64" xmlns="http://www.w3.org/2000/svg"><path d="m8 7c-.551 0-1 .449-1 1v1h2v-1c0-.551-.449-1-1-1z"/><path d="m9 17h14v2h-14z"/><path d="m5 59h22v2h-22z"/><path d="m3 3v12h26v-12zm8 10h-2v-2h-2v2h-2v-5c0-1.654 1.346-3 3-3s3 1.346 3 3zm8-6h-2v6h-2v-6h-2v-2h6zm8 6h-2v-2.764l-.105.211c-.339.678-1.45.678-1.789 0l-.106-.211v2.764h-2v-7c0-.464.319-.867.77-.973.456-.105.917.112 1.125.526l1.105 2.211 1.105-2.211c.208-.415.669-.632 1.125-.526.451.106.77.509.77.973z"/><path d="m9 49v8h14v-8zm3 6h-2v-4h2z"/><path d="m9 41h8v2h-8z"/><path d="m9 35h14v-10h-14zm2-8h10v2h-10zm0 4h10v2h-10z"/><path d="m5 21v36h2v-9c0-.552.448-1 1-1h16c.552 0 1 .448 1 1v9h2v-36zm14 23c0 .552-.448 1-1 1h-10c-.552 0-1-.448-1-1v-4c0-.552.448-1 1-1h10c.552 0 1 .448 1 1zm6 1h-4v-2h4zm0-4h-4v-2h4zm0-5c0 .552-.448 1-1 1h-16c-.552 0-1-.448-1-1v-12c0-.552.448-1 1-1h16c.552 0 1 .448 1 1z"/><path d="m55 25h-14v10h14zm-2 8h-10v-2h10zm0-4h-10v-2h10z"/><path d="m41 41h8v2h-8z"/><path d="m37 59h22v2h-22z"/><path d="m41 17h14v2h-14z"/><path d="m37 57h2v-9c0-.552.448-1 1-1h16c.552 0 1 .448 1 1v9h2v-36h-22zm20-12h-4v-2h4zm0-4h-4v-2h4zm-18-17c0-.552.448-1 1-1h16c.552 0 1 .448 1 1v12c0 .552-.448 1-1 1h-16c-.552 0-1-.448-1-1zm0 16c0-.552.448-1 1-1h10c.552 0 1 .448 1 1v4c0 .552-.448 1-1 1h-10c-.552 0-1-.448-1-1z"/><path d="m40 7c-.551 0-1 .449-1 1v1h2v-1c0-.551-.449-1-1-1z"/><path d="m35 3v12h26v-12zm8 10h-2v-2h-2v2h-2v-5c0-1.654 1.346-3 3-3s3 1.346 3 3zm8-6h-2v6h-2v-6h-2v-2h6zm8 6h-2v-2.764l-.105.211c-.339.678-1.45.678-1.789 0l-.106-.211v2.764h-2v-7c0-.464.319-.867.77-.973.454-.105.917.112 1.125.526l1.105 2.211 1.105-2.211c.208-.415.67-.632 1.125-.526.451.106.77.509.77.973z"/><path d="m40 49v8h14v-8zm3 6h-2v-4h2z"/></svg>
