<?xml version="1.0" encoding="iso-8859-1"?>
<!-- Generator: Adobe Illustrator 19.0.0, SVG Export Plug-In . SVG Version: 6.00 Build 0)  -->
<svg version="1.1" id="Capa_1" xmlns="http://www.w3.org/2000/svg" xmlns:xlink="http://www.w3.org/1999/xlink" x="0px" y="0px"
	 viewBox="0 0 447.997 447.997" style="enable-background:new 0 0 447.997 447.997;" xml:space="preserve">
<g>
	<g>
		<rect x="96.002"/>
	</g>
</g>
<g>
	<g>
		<path d="M159.998,134.749V47.997h-64v86.752c-28.224,12.352-48,40.464-48,73.248v224c0,8.832,7.168,16,16,16h128
			c8.832,0,16-7.168,16-16v-224C207.998,175.213,188.222,147.101,159.998,134.749z M127.998,383.997h-48v-144h48V383.997z"/>
	</g>
</g>
<g>
	<g>
		<path d="M399.998,287.997v-80h-160v80c0,38.704,27.488,70.976,64,78.384v49.616l-48,16v16h128v-16l-48-16v-49.616
			C372.51,358.973,399.998,326.701,399.998,287.997z M271.998,287.997v-48h96v48H271.998z"/>
	</g>
</g>
<g>
</g>
<g>
</g>
<g>
</g>
<g>
</g>
<g>
</g>
<g>
</g>
<g>
</g>
<g>
</g>
<g>
</g>
<g>
</g>
<g>
</g>
<g>
</g>
<g>
</g>
<g>
</g>
<g>
</g>
</svg>
