<svg id="Layer_1" enable-background="new 0 0 512 512" viewBox="0 0 512 512" xmlns="http://www.w3.org/2000/svg"><ellipse cx="241.129" cy="66.864" rx="41.718" ry="41.718" transform="matrix(.14 -.99 .99 .14 141.122 296.239)"/><path d="m73.467 248.6c-1.547 3.221 2.523-9.282-61.676 209.193-3.526 12.02 3.361 24.623 15.38 28.148 11.998 3.519 24.616-3.34 28.148-15.38l55.704-189.913 25.033 3.041 19.76 72.438-15.569 104.717c-2.031 13.665 8.542 26.02 22.463 26.02 11.05-.001 20.732-8.09 22.406-19.349l16.27-109.428c.461-3.106.273-6.275-.553-9.305l-25.067-91.89 21.357-50.531-102.374-22.265c-21.334 64.283-20.704 61.674-21.282 64.504z"/><path d="m32.145 130.341-16.154-4.54c-.134-.037-.319-.086-.456-.119-6.756-1.629-13.553 2.528-15.182 9.283-1.629 6.756 2.527 13.553 9.283 15.182l22.188 5.35c-.022-.563-.03-1.13-.022-1.7z"/><path d="m45.727 73.613-.625 80.232c-.082 10.438 8.314 18.966 18.753 19.048h.15c10.37 0 18.817-8.365 18.897-18.753l.385-49.386 29.717 15.439 4.805 2.496c-3.263 4.68-5.888 9.832-7.725 15.351l-.22.66 226.091 69.056c-1.354-5.978-5.578-11.188-11.74-13.521l-61.345-23.227-38.477-37.03c-.653-10.865-7.299-20.958-18.004-25.483l-16.014-6.769c-11.776-4.977-24.73-6.011-36.988-3.152-7.861-4.084-72.111-37.464-80.046-41.586-12.499-6.494-27.504 2.514-27.614 16.625z"/><path d="m442.974 251.956c.319-.42.571-.902.723-1.44.647-2.302-.695-4.693-2.997-5.34l-345.502-97.113-.097 6.657c-.08 5.473-1.545 10.6-4.055 15.054l340.843 82.18h-133.543c-6.817 0-11.749 6.51-9.903 13.073l10.317 36.683c1.248 4.437 5.294 7.502 9.903 7.502h24.487l32.196 168.534c1.011 5.29 5.637 9.117 11.023 9.117h48.309c5.765 0 10.602-4.368 11.159-10.106 3.773-38.856 36.546-69.01 76.163-69.01v-98.535-1.482-55.776c-10.358.002-50.573.002-69.026.002z"/></svg>
