<?xml version="1.0" encoding="iso-8859-1"?>
<!-- Generator: Adobe Illustrator 19.0.0, SVG Export Plug-In . SVG Version: 6.00 Build 0)  -->
<svg version="1.1" id="Capa_1" xmlns="http://www.w3.org/2000/svg" xmlns:xlink="http://www.w3.org/1999/xlink" x="0px" y="0px"
	 viewBox="0 0 512 512" style="enable-background:new 0 0 512 512;" xml:space="preserve">
<g>
	<g>
		<path d="M469.331,170.67h-5.91l-73.277-127.99c-5.677-9.896-14.845-16.969-25.814-19.906c-10.917-2.917-22.335-1.385-32.106,4.302
			L21.141,208.17C0.953,219.92-5.996,246.025,5.64,266.347l5.278,9.219l0.004,0.01l8.82,15.398L64,368.256v79.747
			c0,23.531,19.137,42.667,42.669,42.667h362.661c23.533,0,42.669-19.135,42.669-42.667V213.337
			C512,189.806,492.863,170.67,469.331,170.67z M64.002,325.302l-8.147-14.232l8.147-4.743V325.302z M64.002,213.337v19.096
			l-39.859,23.203c-5.762-10.172-2.306-23.173,7.744-29.029l32.699-19.035C64.325,209.476,64.002,211.363,64.002,213.337z
			 M403.376,108.742l35.454,61.928H297.007L403.376,108.742z M342.969,45.514c4.833-2.813,10.459-3.594,15.844-2.135
			c5.448,1.458,9.99,4.979,12.813,9.906l0.022,0.039L170.086,170.67h-42.111L342.969,45.514z M256.008,352.004
			c0,5.896-4.771,10.667-10.667,10.667h-106.67c-5.896,0-10.667-4.771-10.667-10.667s4.771-10.667,10.667-10.667h106.67
			C251.237,341.337,256.008,346.108,256.008,352.004z M288.009,426.67H138.671c-5.896,0-10.667-4.771-10.667-10.667
			s4.771-10.667,10.667-10.667h149.338c5.896,0,10.667,4.771,10.667,10.667S293.905,426.67,288.009,426.67z M404.013,426.67
			c-7,0-13.802-1.625-20.001-4.75c-6.198,3.125-13,4.75-20.001,4.75c-24.261,0-44.001-19.135-44.001-42.667
			s19.74-42.667,44.001-42.667c7,0,13.803,1.625,20.001,4.75c6.198-3.125,13-4.75,20.001-4.75c24.261,0,44.001,19.135,44.001,42.667
			S428.274,426.67,404.013,426.67z"/>
	</g>
</g>
<g>
</g>
<g>
</g>
<g>
</g>
<g>
</g>
<g>
</g>
<g>
</g>
<g>
</g>
<g>
</g>
<g>
</g>
<g>
</g>
<g>
</g>
<g>
</g>
<g>
</g>
<g>
</g>
<g>
</g>
</svg>
