<?xml version="1.0"?>
<svg xmlns="http://www.w3.org/2000/svg" style="fill:#D4B580;" viewBox="0 0 192 192" width="512" height="512"><g id="_13-smoking" data-name="13-smoking"><g id="Gyph"><path d="M96,0a96,96,0,1,0,96,96A96.108,96.108,0,0,0,96,0Zm80,96a79.623,79.623,0,0,1-18.087,50.6l-18.6-18.6H152a8,8,0,0,0,8-8V104a8,8,0,0,0-8-8H107.314L45.4,34.087A79.953,79.953,0,0,1,176,96Zm-32,24V104h8v16ZM16,96A79.623,79.623,0,0,1,34.087,45.4L84.686,96H72v32h44.686L146.6,157.913A79.953,79.953,0,0,1,16,96Z"/><path d="M120,64h16a8.009,8.009,0,0,1,8,8v8h16V72a24.027,24.027,0,0,0-24-24H120a8.009,8.009,0,0,1-8-8V32H96v8A24.027,24.027,0,0,0,120,64Z"/><path d="M32,104v16a8,8,0,0,0,8,8H64V96H40A8,8,0,0,0,32,104Z"/></g></g></svg>
