<?xml version="1.0" encoding="iso-8859-1"?>
<!-- Generator: Adobe Illustrator 19.0.0, SVG Export Plug-In . SVG Version: 6.00 Build 0)  -->
<svg version="1.1" id="Capa_1" xmlns="http://www.w3.org/2000/svg" xmlns:xlink="http://www.w3.org/1999/xlink" x="0px" y="0px"
	 viewBox="0 0 511.998 511.998" style="enable-background:new 0 0 511.998 511.998;fill:#D4B580;" xml:space="preserve">
<g>
	<g>
		<path d="M313.004,108.702c-4.949-10.624-17.574-15.225-28.198-10.276l-27.828,12.963c5.797,3.083,9.455,8.695,10.2,14.846
			c0.557,4.604,4.487,8.077,9.141,8.077h0.056c4.523-0.026,7.613-3.146,8.669-6.227c4.053-11.83,16.015-19.366,28.756-17.423
			C313.568,110.003,313.305,109.349,313.004,108.702z"/>
	</g>
</g>
<g>
	<g>
		<path d="M463.846,245.644H358.118l0.317,55.446c0.014,2.46-0.314,4.867-0.948,7.175h119.946v-49.034
			C477.433,251.728,471.351,245.644,463.846,245.644z M407.861,283.695c-5.563,0-10.072-4.509-10.072-10.072
			c0-5.563,4.509-10.072,10.072-10.072c5.563,0,10.072,4.509,10.072,10.072C417.933,279.185,413.424,283.695,407.861,283.695z
			 M445.912,285.934c-6.798,0-12.31-5.512-12.31-12.31c0-6.799,5.512-12.31,12.31-12.31s12.31,5.512,12.31,12.31
			C458.222,280.422,452.71,285.934,445.912,285.934z"/>
	</g>
</g>
<g>
	<g>
		<path d="M344.803,324.347c-3.814,2.112-8.117,3.25-12.598,3.276l-99.862,0.572v170.217c0,7.503,6.084,13.587,13.587,13.587
			h217.915c7.504,0,13.587-6.083,13.587-13.587V324.347H344.803z M395.962,458.422c-22.685,22.685-59.463,22.685-82.148,0
			c-22.685-22.685-22.685-59.463,0-82.148c22.685-22.685,59.463-22.685,82.148,0C418.647,398.958,418.647,435.737,395.962,458.422z"
			/>
	</g>
</g>
<g>
	<g>
		<path d="M325.538,390.769c-14.097,15.542-13.648,39.578,1.351,54.577c14.999,15,39.036,15.449,54.578,1.352L325.538,390.769z"/>
	</g>
</g>
<g>
	<g>
		<path d="M377.938,174.157l-39.921-37.03h-0.001l-26.418-7.065c-3.428-0.917-6.976,0.974-8.129,4.339
			c-3.844,11.222-14.45,19.32-26.984,19.392c-0.056,0-0.112,0-0.167,0c-4.148,0-8.091-0.882-11.654-2.469
			c0.165,11.558-4.808,23.069-14.533,30.849l-34.951,27.96l0.525,91.776c0.022,3.798,3.107,6.863,6.901,6.863
			c0.013,0,0.027,0,0.04,0l109.446-0.626c3.813-0.022,6.887-3.13,6.865-6.943l-0.603-105.38l13.05,12.901
			c3.039,3.005,8.082,2.562,10.532-0.986l16.988-24.598C380.873,180.317,380.454,176.491,377.938,174.157z"/>
	</g>
</g>
<g>
	<g>
		<path d="M243.035,139.21c-7.236-9.736-21.035-11.458-30.428-3.945l-49.632,39.705l-39.096-32.567l32.519,15.482
			c10.733-8.586,3.515-2.812,37.354-29.883l-42.066-13.603c-3.768-1.218-7.665-1.975-11.617-2.253
			c-7.464-0.525-24.063-1.699-60.548-4.288c-17.431-1.236-32.572,11.89-33.81,29.322L35.238,299.097l-0.673,187.359
			c-0.042,14.063,11.325,25.499,25.389,25.541c0.026,0,0.051,0,0.078,0c14.028,0,25.422-11.351,25.464-25.389
			c0.596-198.038,0.658-185.78,0.363-188.213l14.138-0.196l30.945,82.286l-8.778,103.901c-1.184,14.015,9.217,26.334,23.231,27.519
			c14.071,1.179,26.338-9.265,27.519-23.231l9.262-109.628c0.318-3.771-0.208-7.566-1.539-11.108l-26.509-70.488l0.223-0.003
			l3.774-53.193c-7.959-1.011-15.239-5.158-20.228-11.998l-41.294-57.109l52.463,43.702c7.758,6.464,19.024,6.609,26.95,0.267
			l62.816-50.252C247.855,161.647,249.928,148.483,243.035,139.21z"/>
	</g>
</g>
<g>
	<g>
		<circle cx="120.265" cy="46.839" r="46.839"/>
	</g>
</g>
<g>
	<g>
		<path d="M364.891,92.245l-8.678-2.467c-1.904-0.542-3.391-2.03-3.933-3.933l-2.467-8.678c-0.409-1.439-2.459-1.44-2.868,0
			l-2.467,8.678c-0.542,1.904-2.03,3.392-3.933,3.933l-8.678,2.467c-1.438,0.409-1.44,2.458,0,2.868l8.678,2.467
			c1.903,0.542,3.391,2.03,3.933,3.933l2.467,8.678c0.409,1.438,2.459,1.439,2.868,0l2.467-8.678
			c0.542-1.903,2.029-3.391,3.933-3.933l8.678-2.467C366.329,94.704,366.331,92.654,364.891,92.245z"/>
	</g>
</g>
<g>
	<g>
		<path d="M323.364,55.132l-7.998-2.273c-1.755-0.499-3.125-1.87-3.625-3.625l-2.274-7.998c-0.377-1.326-2.265-1.327-2.643,0
			l-2.274,7.998c-0.498,1.755-1.87,3.125-3.625,3.625l-7.998,2.273c-1.325,0.377-1.327,2.266,0,2.643l7.998,2.274
			c1.755,0.499,3.125,1.87,3.625,3.625l2.274,7.998c0.377,1.326,2.266,1.327,2.643,0l2.274-7.998
			c0.498-1.755,1.87-3.125,3.625-3.625l7.998-2.274C324.69,57.398,324.692,55.51,323.364,55.132z"/>
	</g>
</g>
<g>
	<g>
		<path d="M350.738,24.26l-5.957-1.694c-1.307-0.372-2.328-1.393-2.7-2.7l-1.694-5.957c-0.281-0.989-1.688-0.989-1.968,0
			l-1.694,5.957c-0.372,1.307-1.393,2.328-2.7,2.7l-5.957,1.694c-0.989,0.281-0.989,1.687,0,1.968l5.957,1.694
			c1.307,0.372,2.328,1.393,2.7,2.7l1.694,5.957c0.28,0.985,1.688,0.989,1.968,0l1.694-5.957c0.372-1.307,1.393-2.328,2.7-2.7
			l5.957-1.694C351.726,25.947,351.726,24.541,350.738,24.26z"/>
	</g>
</g>
<g>
</g>
<g>
</g>
<g>
</g>
<g>
</g>
<g>
</g>
<g>
</g>
<g>
</g>
<g>
</g>
<g>
</g>
<g>
</g>
<g>
</g>
<g>
</g>
<g>
</g>
<g>
</g>
<g>
</g>
</svg>
