<svg viewBox="-8 0 512 512" xmlns="http://www.w3.org/2000/svg"><path d="m374.777344 441.359375h-168.546875c2.289062 7.261719 3.527343 14.980469 3.527343 22.988281 0 2.367188-.125 4.707032-.335937 7.019532h162.167969c-.210938-2.3125-.335938-4.652344-.335938-7.019532 0-8.007812 1.238282-15.726562 3.523438-22.988281zm0 0"/><path d="m359.066406 377.839844c7.492188 0 13.5625-6.070313 13.5625-13.558594 0-7.492188-6.070312-13.5625-13.5625-13.5625h-122.867187c-19.230469 0-34.820313 15.59375-34.820313 34.824219v.992187c0 19.230469 15.589844 34.824219 34.820313 34.824219h122.867187c7.492188 0 13.5625-6.074219 13.5625-13.5625s-6.070312-13.558594-13.5625-13.558594h-122.867187v-16.398437zm0 0"/><path d="m359.066406 289.878906c7.492188 0 13.5625-6.070312 13.5625-13.5625 0-7.488281-6.070312-13.558594-13.5625-13.558594h-122.867187c-19.230469 0-34.820313 15.589844-34.820313 34.824219v.992188c0 19.230469 15.589844 34.820312 34.820313 34.820312h122.867187c7.492188 0 13.5625-6.070312 13.5625-13.558593 0-7.488282-6.070312-13.558594-13.5625-13.558594h-122.867187v-16.398438zm0 0"/><path d="m180.757812 464.347656c0-26.273437-21.378906-47.652344-47.652343-47.652344-26.277344 0-47.652344 21.378907-47.652344 47.652344 0 26.273438 21.375 47.652344 47.652344 47.652344 26.273437 0 47.652343-21.378906 47.652343-47.652344zm0 0"/><path d="m447.90625 416.695312c-26.277344 0-47.652344 21.378907-47.652344 47.652344 0 26.273438 21.375 47.652344 47.652344 47.652344 26.273438 0 47.648438-21.378906 47.648438-47.652344 0-26.273437-21.375-47.652344-47.648438-47.652344zm0 0"/><path d="m148.109375 389.179688v-158.191407h284.265625v158.289063c5.015625-1.035156 10.210938-1.582032 15.53125-1.582032 4.949219 0 9.785156.488282 14.476562 1.390626v-239.296876h-30.007812v51.195313h-23.363281v-79.851563l-33.625-21.894531v-27.148437h-30.007813v27.148437l-33.625 21.894531v79.851563h-25.65625v-91.503906c0-21.6875-10.941406-41.558594-29.273437-53.152344l-10.625-6.714844v-32.394531h-30.007813v32.394531l-10.621094 6.71875c-18.332031 11.589844-29.277343 31.457031-29.277343 53.148438v91.5h-28.183594v-200.980469h-133.105469v30.007812h70.300782l-73.863282 154.359376c-7.484375 15.640624-11.441406 33.074218-11.441406 50.414062 0 64.40625 52.394531 116.800781 116.800781 116.800781h1.300781v37.597657c4.855469-.964844 9.871094-1.484376 15.003907-1.484376 5.132812 0 10.148437.515626 15.003906 1.484376zm0 0"/></svg>
