<svg id="Capa_1" enable-background="new 0 0 512.028 512.028" viewBox="0 0 512.028 512.028" xmlns="http://www.w3.org/2000/svg"><path d="m446.714 139.128c13.2-36.899 5.101-79.799-24.3-109.499-28.499-28.5-72.299-36.301-109.199-24.001z"/><path d="m383.114 202.728c9.901-2.999 19.2-8.099 27.9-14.7l11.4 11.4 21-21c-6.892-6.892-180.053-180.053-169.799-169.799l-21 21 11.4 11.4c-6.601 8.699-11.7 17.999-14.7 27.9-13.2 36.899-5.101 79.799 24.3 109.499 29.699 29.401 72.599 37.5 109.499 24.3z"/><path d="m57.436 512.028h227.578c24.814 0 45-20.186 45-45s-20.186-45-45-45h-30c-8.276 0-15-6.724-15-15s6.724-15 15-15h45v-30h-45c-24.814 0-45 20.186-45 45s20.186 45 45 45h30c8.276 0 15 6.724 15 15s-6.724 15-15 15h-227.578c-15.117 0-27.422-12.305-27.422-27.422 0-7.222 2.93-14.297 8.027-19.395l56.819-56.808 10.593 10.593 63.647-21.196 4.393-4.393-84.862-84.855-4.389 4.389-21.196 63.647 10.604 10.604-56.819 56.808c-10.84 10.84-16.816 25.269-16.816 40.605-.001 31.657 25.751 57.423 57.421 57.423z"/><path d="m46.014 181.028c24.814 0 45-21.186 45-46v-77.763c4.715 1.681 9.716 2.763 15 2.763 8.276 0 15 6.724 15 15s-6.724 15-15 15v30c24.814 0 45-20.186 45-45s-20.186-45-45-45c-8.276 0-15-6.724-15-15v-15h-30v92.763c-4.715-1.681-9.716-2.763-15-2.763-24.814 0-46 20.186-46 45s21.186 46 46 46z"/><path d="m452.014 271.028h-30v92.763c-4.715-1.681-9.716-2.763-15-2.763-24.814 0-46 20.186-46 45s21.186 45 46 45 45-20.186 45-45v-77.763c4.715 1.681 9.716 2.763 15 2.763 8.276 0 15 6.724 15 15s-6.724 15-15 15v30c24.814 0 45-20.186 45-45s-20.186-45-45-45c-8.276 0-15-6.724-15-15z"/><path d="m220.521 146.663-110.678 110.678 84.862 84.855 110.642-110.642c-19.596-6.535-37.751-17.02-52.797-32.047-15.313-15.321-25.627-33.565-32.029-52.844zm-36.209 142.279-21.211-21.211 55.412-55.412 21.211 21.211z"/></svg>
