<svg id="Capa_1" enable-background="new 0 0 512 512" viewBox="0 0 512 512" xmlns="http://www.w3.org/2000/svg"><path d="m302.399 271.753-50.005 48.054c-3.373 3.241-8.068 4.723-12.686 4.009-4.622-.715-8.646-3.545-10.883-7.653l-35.058-64.407-113.407 77.665-78.832 160.974c-2.276 4.648-1.995 10.143.744 14.535 2.74 4.393 7.551 7.062 12.728 7.062h381c5.177 0 9.987-2.669 12.728-7.062 2.739-4.393 3.021-9.887.744-14.535z"/><path d="m202.506 215.407c4.127.991 7.64 3.686 9.669 7.413l33.604 61.736 42.765-41.096-69.572-142.066c-2.519-5.143-7.745-8.402-13.472-8.402s-10.953 3.26-13.472 8.402l-84.876 173.317 83.373-57.097c3.5-2.395 7.855-3.201 11.981-2.207z"/><path d="m407.009 150c24.813 0 45-20.187 45-45s-20.187-45.001-45-45.001-45 20.188-45 45.001 20.186 45 45 45z"/><path d="m317.018 120h12.005c8.284 0 15-6.716 15-15s-6.716-15-15-15h-12.005c-8.284 0-15 6.716-15 15s6.716 15 15 15z"/><path d="m407.009 42.014c8.284 0 15-6.716 15-15v-12.005c0-8.284-6.716-15-15-15s-15 6.716-15 15v12.005c0 8.284 6.716 15 15 15z"/><path d="m469.995 105c0 8.284 6.716 15 15 15h12.005c8.284 0 15-6.716 15-15s-6.716-15-15-15h-12.005c-8.284 0-15 6.716-15 15z"/><path d="m392.009 182.986v12.005c0 8.284 6.716 15 15 15s15-6.716 15-15v-12.005c0-8.284-6.716-15-15-15s-15 6.716-15 15z"/><path d="m341.256 149.539-8.488 8.489c-5.857 5.857-5.856 15.355.002 21.213 2.929 2.929 6.767 4.393 10.605 4.393s7.679-1.465 10.607-4.394l8.488-8.489c5.857-5.858 5.856-15.356-.002-21.214-5.857-5.857-15.355-5.857-21.212.002z"/><path d="m341.256 60.461c2.93 2.93 6.769 4.395 10.607 4.395s7.677-1.465 10.605-4.393c5.858-5.857 5.859-15.355.002-21.214l-8.488-8.489c-5.858-5.856-15.354-5.857-21.213-.001-5.858 5.857-5.859 15.355-.002 21.213z"/><path d="m462.153 64.856c3.839 0 7.678-1.465 10.606-4.394l8.489-8.489c5.858-5.857 5.858-15.355 0-21.213-5.857-5.857-15.355-5.857-21.213 0l-8.489 8.489c-5.858 5.857-5.858 15.355 0 21.213 2.93 2.929 6.769 4.394 10.607 4.394z"/><path d="m472.76 149.538c-5.857-5.857-15.355-5.857-21.213 0s-5.858 15.355 0 21.213l8.489 8.489c2.929 2.929 6.768 4.394 10.606 4.394s7.678-1.465 10.606-4.394c5.858-5.857 5.858-15.355 0-21.213z"/><path d="m397.291 274.038c-2.588-4.946-7.708-8.047-13.291-8.047s-10.703 3.101-13.291 8.047l-17.451 33.358s93.721 190.328 99.164 204.596h44.578c5.248 0 10.114-2.742 12.832-7.231s2.892-10.072.459-14.722z"/></svg>
