<?xml version="1.0" encoding="iso-8859-1"?>
<!-- Generator: Adobe Illustrator 19.0.0, SVG Export Plug-In . SVG Version: 6.00 Build 0)  -->
<svg version="1.1" id="Capa_1" xmlns="http://www.w3.org/2000/svg" xmlns:xlink="http://www.w3.org/1999/xlink" x="0px" y="0px"
	 viewBox="0 0 512.001 512.001" style="enable-background:new 0 0 512.001 512.001;" xml:space="preserve">
<g>
	<g>
		<path d="M451.951,116.939C451.951,52.357,408.09,0,353.975,0C299.861,0,256,52.357,256,116.939
			c0,52.521,29.02,96.951,68.962,111.717l-18.236,239.098c1.631,24.703,22.13,44.247,47.249,44.247
			c25.114,0,45.618-19.545,47.249-44.247l-18.236-239.098C422.931,213.89,451.951,169.459,451.951,116.939z"/>
	</g>
</g>
<g>
	<g>
		<path d="M186.47,0v151.703h-31.605V0H123.26v151.703H91.655V0H60.05c0,0,0,153.795,0,154.864c0,33.387,20.745,61.882,50.024,73.45
			L91.813,467.753C93.444,492.455,113.943,512,139.062,512c25.114,0,45.618-19.545,47.249-44.247L168.05,228.314
			c29.279-11.568,50.024-40.063,50.024-73.45c0-1.069,0-154.864,0-154.864H186.47z"/>
	</g>
</g>
<g>
</g>
<g>
</g>
<g>
</g>
<g>
</g>
<g>
</g>
<g>
</g>
<g>
</g>
<g>
</g>
<g>
</g>
<g>
</g>
<g>
</g>
<g>
</g>
<g>
</g>
<g>
</g>
<g>
</g>
</svg>
