<?xml version="1.0" encoding="iso-8859-1"?>
<!-- Generator: Adobe Illustrator 19.0.0, SVG Export Plug-In . SVG Version: 6.00 Build 0)  -->
<svg version="1.1" id="Capa_1" xmlns="http://www.w3.org/2000/svg" xmlns:xlink="http://www.w3.org/1999/xlink" x="0px" y="0px"
	 viewBox="0 0 512 512" style="enable-background:new 0 0 512 512;" xml:space="preserve">
<g>
	<g>
		<path d="M257,421c-8.291,0-15,6.709-15,15v61c0,8.291,6.709,15,15,15s15-6.709,15-15v-61C272,427.709,265.291,421,257,421z"/>
	</g>
</g>
<g>
	<g>
		<path d="M197,451c-8.291,0-15,6.709-15,15v31c0,8.291,6.709,15,15,15s15-6.709,15-15v-31C212,457.709,205.291,451,197,451z"/>
	</g>
</g>
<g>
	<g>
		<path d="M317,451c-8.291,0-15,6.709-15,15v31c0,8.291,6.709,15,15,15c8.291,0,15-6.709,15-15v-31C332,457.709,325.291,451,317,451
			z"/>
	</g>
</g>
<g>
	<g>
		<path d="M437,451c-8.291,0-15,6.709-15,15v31c0,8.291,6.709,15,15,15c8.291,0,15-6.709,15-15v-31C452,457.709,445.291,451,437,451
			z"/>
	</g>
</g>
<g>
	<g>
		<path d="M377,421c-8.291,0-15,6.709-15,15v61c0,8.291,6.709,15,15,15c8.291,0,15-6.709,15-15v-61C392,427.709,385.291,421,377,421
			z"/>
	</g>
</g>
<g>
	<g>
		<path d="M497,301c-71.137,0-288.893,0-360,0c-8.291,0-16,6.709-16,15c0,8.291,7.709,15,16,15h17.763
			c4.532,12.708,14.529,22.705,27.237,27.237V406c0,8.291,6.709,15,15,15s15-6.709,15-15v-45h30v15c0,8.291,6.709,15,15,15
			s15-6.709,15-15v-15h30v45c0,8.291,6.709,15,15,15c8.291,0,15-6.709,15-15v-45h30v15c0,8.291,6.709,15,15,15
			c8.291,0,15-6.709,15-15v-15h30v45c0,8.291,6.709,15,15,15c8.291,0,15-6.709,15-15v-47.763
			c12.708-4.532,22.705-14.529,27.237-27.237H497c8.291,0,15-6.709,15-15C512,307.709,505.291,301,497,301z"/>
	</g>
</g>
<g>
	<g>
		<path d="M61,0H15C6.716,0,0,6.716,0,15v90c0,8.284,6.716,15,15,15h46c16.569,0,30-13.431,30-30V30C91,13.431,77.569,0,61,0z"/>
	</g>
</g>
<g>
	<g>
		<path d="M317,150c-75.366,0-138.95,51.85-158.604,121h317.208C455.95,201.85,392.366,150,317,150z"/>
	</g>
</g>
<g>
	<g>
		<path d="M242,30H121v60h121c20.546,0,37.683,13.852,43.074,32.666C295.511,120.912,306.18,120,317,120
			c9.738,0,19.296,0.976,28.729,2.401C339.436,70.424,295.674,30,242,30z"/>
	</g>
</g>
<g>
</g>
<g>
</g>
<g>
</g>
<g>
</g>
<g>
</g>
<g>
</g>
<g>
</g>
<g>
</g>
<g>
</g>
<g>
</g>
<g>
</g>
<g>
</g>
<g>
</g>
<g>
</g>
<g>
</g>
</svg>
