<svg viewBox="0 0 64 64" xmlns="http://www.w3.org/2000/svg"><g id="Paper_towel" data-name="Paper towel"><path d="m49 1h-34a5.006 5.006 0 0 0 -5 5v30a1 1 0 0 0 2 0v-3h4v26a1 1 0 0 0 1.606.8c.32-.243 7.893-5.882 13.687-.088a10.206 10.206 0 0 0 7.434 3.167 16.6 16.6 0 0 0 8.88-3.08 1 1 0 0 0 .393-.799v-26h4v3a1 1 0 0 0 2 0v-30a5.006 5.006 0 0 0 -5-5zm-37 24v-3h40v3zm0-19a3 3 0 0 1 3-3h34a3 3 0 0 1 3 3v14h-40zm0 21h4v4h-4zm34 31.483c-1.669 1.125-8.175 4.929-13.293-.19-5.274-5.273-11.751-2.734-14.707-1.093v-30.2h28zm2-31.483h4v4h-4z"/><path d="m23 5h-8a1 1 0 0 0 0 2h8a1 1 0 0 0 0-2z"/><path d="m27 5h-1a1 1 0 0 0 0 2h1a1 1 0 0 0 0-2z"/></g></svg>
