<svg viewBox="0 0 48 48" fill="none" xmlns="http://www.w3.org/2000/svg">
<path d="M16.323 1.0634C16.323 0.476102 16.6667 0 17.0907 0H22.6513C23.0753 0 23.419 0.476103 23.419 1.06341V2.88466C23.419 3.47197 23.0753 3.94807 22.6513 3.94807H17.0907C16.6667 3.94807 16.323 3.47197 16.323 2.88466V1.0634Z" fill="#D4B580"/>
<path d="M24.5811 1.0634C24.5811 0.476102 24.9248 0 25.3488 0H30.9093C31.3333 0 31.677 0.476103 31.677 1.06341V2.88466C31.677 3.47197 31.3333 3.94807 30.9093 3.94807H25.3488C24.9248 3.94807 24.5811 3.47197 24.5811 2.88466V1.0634Z" fill="#D4B580"/>
<path fill-rule="evenodd" clip-rule="evenodd" d="M15.8385 6.07489H32.1615V12.4553H15.8385V6.07489ZM16.6062 10.8556C16.6062 10.7332 16.6778 10.6341 16.7661 10.6341H18.6227C18.711 10.6341 18.7826 10.7332 18.7826 10.8556C18.7826 10.978 18.711 11.0771 18.6227 11.0771H16.7661C16.6778 11.0771 16.6062 10.978 16.6062 10.8556ZM19.0692 10.6341C18.9809 10.6341 18.9093 10.7332 18.9093 10.8556C18.9093 10.978 18.9809 11.0771 19.0692 11.0771H19.2934C19.3818 11.0771 19.4534 10.978 19.4534 10.8556C19.4534 10.7332 19.3818 10.6341 19.2934 10.6341H19.0692Z" fill="#D4B580"/>
<path fill-rule="evenodd" clip-rule="evenodd" d="M0 17.7724H16.323V24.1528H0V17.7724ZM0.767697 22.5531C0.767697 22.4307 0.839304 22.3315 0.927635 22.3315H2.78416C2.87249 22.3315 2.9441 22.4307 2.9441 22.5531C2.9441 22.6754 2.87249 22.7746 2.78416 22.7746H0.927634C0.839304 22.7746 0.767697 22.6754 0.767697 22.5531ZM3.23073 22.3315C3.1424 22.3315 3.07079 22.4307 3.07079 22.5531C3.07079 22.6754 3.1424 22.7746 3.23073 22.7746H3.45495C3.54328 22.7746 3.61489 22.6754 3.61489 22.5531C3.61489 22.4307 3.54328 22.3315 3.45495 22.3315H3.23073Z" fill="#D4B580"/>
<path d="M0.48454 27.343C0.48454 26.7557 0.82825 26.2796 1.25224 26.2796H6.81281C7.23679 26.2796 7.5805 26.7557 7.5805 27.343V29.1643C7.5805 29.7516 7.23679 30.2277 6.81281 30.2277H1.25224C0.828251 30.2277 0.48454 29.7516 0.48454 29.1643V27.343Z" fill="#D4B580"/>
<path d="M8.74257 27.343C8.74257 26.7557 9.08628 26.2796 9.51027 26.2796H15.0708C15.4948 26.2796 15.8385 26.7557 15.8385 27.343V29.1643C15.8385 29.7516 15.4948 30.2277 15.0708 30.2277H9.51027C9.08628 30.2277 8.74257 29.7516 8.74257 29.1643V27.343Z" fill="#D4B580"/>
<path fill-rule="evenodd" clip-rule="evenodd" d="M31.677 17.7724H48V24.1528H31.677V17.7724ZM32.4447 22.5531C32.4447 22.4307 32.5163 22.3315 32.6046 22.3315H34.4611C34.5495 22.3315 34.6211 22.4307 34.6211 22.5531C34.6211 22.6754 34.5495 22.7746 34.4611 22.7746H32.6046C32.5163 22.7746 32.4447 22.6754 32.4447 22.5531ZM34.9077 22.3315C34.8194 22.3315 34.7478 22.4307 34.7478 22.5531C34.7478 22.6754 34.8194 22.7746 34.9077 22.7746H35.1319C35.2203 22.7746 35.2919 22.6754 35.2919 22.5531C35.2919 22.4307 35.2203 22.3315 35.1319 22.3315H34.9077Z" fill="#D4B580"/>
<path d="M32.1615 27.343C32.1615 26.7557 32.5052 26.2796 32.9292 26.2796H38.4898C38.9138 26.2796 39.2575 26.7557 39.2575 27.343V29.1643C39.2575 29.7516 38.9138 30.2277 38.4898 30.2277H32.9292C32.5052 30.2277 32.1615 29.7516 32.1615 29.1643V27.343Z" fill="#D4B580"/>
<path d="M40.4195 27.343C40.4195 26.7557 40.7633 26.2796 41.1872 26.2796H46.7478C47.1718 26.2796 47.5155 26.7557 47.5155 27.343V29.1643C47.5155 29.7516 47.1718 30.2277 46.7478 30.2277H41.1872C40.7633 30.2277 40.4195 29.7516 40.4195 29.1643V27.343Z" fill="#D4B580"/>
<path fill-rule="evenodd" clip-rule="evenodd" d="M0 35.5447H16.323V41.9251H0V35.5447ZM0.767697 40.3254C0.767697 40.203 0.839304 40.1039 0.927635 40.1039H2.78416C2.87249 40.1039 2.9441 40.203 2.9441 40.3254C2.9441 40.4478 2.87249 40.5469 2.78416 40.5469H0.927634C0.839304 40.5469 0.767697 40.4478 0.767697 40.3254ZM3.23073 40.1039C3.1424 40.1039 3.07079 40.203 3.07079 40.3254C3.07079 40.4478 3.1424 40.5469 3.23073 40.5469H3.45495C3.54328 40.5469 3.61489 40.4478 3.61489 40.3254C3.61489 40.203 3.54328 40.1039 3.45495 40.1039H3.23073Z" fill="#D4B580"/>
<path d="M0.48454 45.1153C0.48454 44.528 0.82825 44.0519 1.25224 44.0519H6.81281C7.23679 44.0519 7.5805 44.528 7.5805 45.1153V46.9366C7.5805 47.5239 7.23679 48 6.81281 48H1.25224C0.828251 48 0.48454 47.5239 0.48454 46.9366V45.1153Z" fill="#D4B580"/>
<path d="M8.74257 45.1153C8.74257 44.528 9.08628 44.0519 9.51027 44.0519H15.0708C15.4948 44.0519 15.8385 44.528 15.8385 45.1153V46.9366C15.8385 47.5239 15.4948 48 15.0708 48H9.51027C9.08628 48 8.74257 47.5239 8.74257 46.9366V45.1153Z" fill="#D4B580"/>
<path fill-rule="evenodd" clip-rule="evenodd" d="M31.677 35.5447H48V41.9251H31.677V35.5447ZM32.4447 40.3254C32.4447 40.203 32.5163 40.1039 32.6046 40.1039H34.4611C34.5495 40.1039 34.6211 40.203 34.6211 40.3254C34.6211 40.4478 34.5495 40.5469 34.4611 40.5469H32.6046C32.5163 40.5469 32.4447 40.4478 32.4447 40.3254ZM34.9077 40.1039C34.8194 40.1039 34.7478 40.203 34.7478 40.3254C34.7478 40.4478 34.8194 40.5469 34.9077 40.5469H35.1319C35.2203 40.5469 35.2919 40.4478 35.2919 40.3254C35.2919 40.203 35.2203 40.1039 35.1319 40.1039H34.9077Z" fill="#D4B580"/>
<path d="M32.1615 45.1153C32.1615 44.528 32.5052 44.0519 32.9292 44.0519H38.4898C38.9138 44.0519 39.2575 44.528 39.2575 45.1153V46.9366C39.2575 47.5239 38.9138 48 38.4898 48H32.9292C32.5052 48 32.1615 47.5239 32.1615 46.9366V45.1153Z" fill="#D4B580"/>
<path d="M40.4195 45.1153C40.4195 44.528 40.7633 44.0519 41.1872 44.0519H46.7478C47.1718 44.0519 47.5155 44.528 47.5155 45.1153V46.9366C47.5155 47.5239 47.1718 48 46.7478 48H41.1872C40.7633 48 40.4195 47.5239 40.4195 46.9366V45.1153Z" fill="#D4B580"/>
</svg>
