<svg viewBox="0 0 48 48" fill="none" xmlns="http://www.w3.org/2000/svg">
<path d="M10.0664 1C10.0664 0.447716 10.3734 0 10.7522 0H17.7555C18.1342 0 18.4412 0.447715 18.4412 1V3.90561C18.4412 4.45789 18.1342 4.90561 17.7555 4.90561H10.7522C10.3734 4.90561 10.0664 4.45789 10.0664 3.90561V1Z" fill="#D4B580"/>
<path d="M19.8126 1C19.8126 0.447716 20.1196 0 20.4983 0H27.5016C27.8803 0 28.1873 0.447715 28.1873 1V3.90561C28.1873 4.45789 27.8803 4.90561 27.5016 4.90561H20.4983C20.1196 4.90561 19.8126 4.45789 19.8126 3.90561V1Z" fill="#D4B580"/>
<path d="M29.5588 1C29.5588 0.447716 29.8658 0 30.2445 0H37.2478C37.6265 0 37.9335 0.447715 37.9335 1V3.90561C37.9335 4.45789 37.6265 4.90561 37.2478 4.90561H30.2445C29.8658 4.90561 29.5588 4.45789 29.5588 3.90561V1Z" fill="#D4B580"/>
<path fill-rule="evenodd" clip-rule="evenodd" d="M9.07278 9.00497H38.9272V29.9901H9.07278V9.00497ZM10.0672 27.8041C10.0672 27.5627 10.2014 27.3669 10.367 27.3669H13.748C13.9136 27.3669 14.0478 27.5627 14.0478 27.8041C14.0478 28.0456 13.9136 28.2413 13.748 28.2413H10.367C10.2014 28.2413 10.0672 28.0456 10.0672 27.8041ZM14.8456 27.3669C14.68 27.3669 14.5458 27.5627 14.5458 27.8041C14.5458 28.0456 14.68 28.2413 14.8456 28.2413H15.2411C15.4067 28.2413 15.5409 28.0456 15.5409 27.8041C15.5409 27.5627 15.4067 27.3669 15.2411 27.3669H14.8456Z" fill="#D4B580"/>
<path d="M0 35.0894C0 34.5371 0.307005 34.0894 0.685714 34.0894H7.68902C8.06773 34.0894 8.37474 34.5371 8.37474 35.0894V37.995C8.37474 38.5473 8.06773 38.995 7.68902 38.995H0.685714C0.307005 38.995 0 38.5473 0 37.995V35.0894Z" fill="#D4B580"/>
<path d="M10.0809 35.0894C10.0809 34.5371 10.3879 34.0894 10.7666 34.0894H17.7699C18.1486 34.0894 18.4556 34.5371 18.4556 35.0894V37.995C18.4556 38.5473 18.1486 38.995 17.7699 38.995H10.7666C10.3879 38.995 10.0809 38.5473 10.0809 37.995V35.0894Z" fill="#D4B580"/>
<path d="M29.5445 35.0894C29.5445 34.5371 29.8515 34.0894 30.2302 34.0894H37.2335C37.6122 34.0894 37.9192 34.5371 37.9192 35.0894V37.995C37.9192 38.5473 37.6122 38.995 37.2335 38.995H30.2302C29.8515 38.995 29.5445 38.5473 29.5445 37.995V35.0894Z" fill="#D4B580"/>
<path d="M39.6253 35.0894C39.6253 34.5371 39.9323 34.0894 40.311 34.0894H47.3143C47.693 34.0894 48 34.5371 48 35.0894V37.995C48 38.5473 47.693 38.995 47.3143 38.995H40.311C39.9323 38.995 39.6253 38.5473 39.6253 37.995V35.0894Z" fill="#D4B580"/>
<path d="M0 44.0944C0 43.5421 0.307005 43.0944 0.685714 43.0944H7.68902C8.06773 43.0944 8.37474 43.5421 8.37474 44.0944V47C8.37474 47.5523 8.06773 48 7.68902 48H0.685714C0.307005 48 0 47.5523 0 47V44.0944Z" fill="#D4B580"/>
<path d="M10.0809 44.0944C10.0809 43.5421 10.3879 43.0944 10.7666 43.0944H17.7699C18.1486 43.0944 18.4556 43.5421 18.4556 44.0944V47C18.4556 47.5523 18.1486 48 17.7699 48H10.7666C10.3879 48 10.0809 47.5523 10.0809 47V44.0944Z" fill="#D4B580"/>
<path d="M29.5445 44.0944C29.5445 43.5421 29.8515 43.0944 30.2302 43.0944H37.2335C37.6122 43.0944 37.9192 43.5421 37.9192 44.0944V47C37.9192 47.5523 37.6122 48 37.2335 48H30.2302C29.8515 48 29.5445 47.5523 29.5445 47V44.0944Z" fill="#D4B580"/>
<path d="M39.6253 44.0944C39.6253 43.5421 39.9323 43.0944 40.311 43.0944H47.3143C47.693 43.0944 48 43.5421 48 44.0944V47C48 47.5523 47.693 48 47.3143 48H40.311C39.9323 48 39.6253 47.5523 39.6253 47V44.0944Z" fill="#D4B580"/>
</svg>
