<svg viewBox="0 0 48 48" fill="none" xmlns="http://www.w3.org/2000/svg">
<path d="M5.23722 0H41.8918V11.52H5.23722V0Z" fill="#D4B580"/>
<path d="M5.23722 46.6286C5.23722 45.8712 6.04101 45.2571 7.03254 45.2571H13.9146C14.9061 45.2571 15.7099 45.8712 15.7099 46.6286C15.7099 47.386 14.9061 48 13.9146 48H7.03254C6.04101 48 5.23722 47.386 5.23722 46.6286Z" fill="#D4B580"/>
<path d="M1.74546 34.9714C2.70944 34.9714 3.49091 35.5684 3.49091 36.3048L3.49091 41.8667C3.49091 42.603 2.70944 43.2 1.74545 43.2C0.781467 43.2 -4.09668e-08 42.603 0 41.8667L3.09426e-07 36.3048C3.50392e-07 35.5684 0.781467 34.9714 1.74546 34.9714Z" fill="#D4B580"/>
<path d="M46.2545 34.9714C47.2185 34.9714 48 35.5684 48 36.3048V41.8667C48 42.603 47.2185 43.2 46.2545 43.2C45.2906 43.2 44.5091 42.603 44.5091 41.8667V36.3048C44.5091 35.5684 45.2906 34.9714 46.2545 34.9714Z" fill="#D4B580"/>
<path d="M1.74546 24.6857C2.70944 24.6857 3.49091 25.2827 3.49091 26.019L3.49091 31.5809C3.49091 32.3173 2.70944 32.9143 1.74545 32.9143C0.781467 32.9143 -4.09668e-08 32.3173 0 31.5809L3.09426e-07 26.019C3.50392e-07 25.2827 0.781467 24.6857 1.74546 24.6857Z" fill="#D4B580"/>
<path d="M46.2545 24.6857C47.2185 24.6857 48 25.2827 48 26.019V31.5809C48 32.3173 47.2185 32.9143 46.2545 32.9143C45.2906 32.9143 44.5091 32.3173 44.5091 31.5809V26.019C44.5091 25.2827 45.2906 24.6857 46.2545 24.6857Z" fill="#D4B580"/>
<path d="M1.74546 14.4C2.70944 14.4 3.49091 14.997 3.49091 15.7333L3.49091 21.2952C3.49091 22.0316 2.70944 22.6286 1.74545 22.6286C0.781467 22.6286 -4.09668e-08 22.0316 0 21.2952L3.09426e-07 15.7333C3.50392e-07 14.997 0.781467 14.4 1.74546 14.4Z" fill="#D4B580"/>
<path d="M46.2545 14.4C47.2185 14.4 48 14.997 48 15.7333V21.2952C48 22.0316 47.2185 22.6286 46.2545 22.6286C45.2906 22.6286 44.5091 22.0316 44.5091 21.2952V15.7333C44.5091 14.997 45.2906 14.4 46.2545 14.4Z" fill="#D4B580"/>
<path d="M18.3281 46.6286C18.3281 45.8712 19.1319 45.2571 20.1235 45.2571H27.0055C27.9971 45.2571 28.8009 45.8712 28.8009 46.6286C28.8009 47.386 27.9971 48 27.0055 48H20.1235C19.1319 48 18.3281 47.386 18.3281 46.6286Z" fill="#D4B580"/>
<path d="M31.419 46.6286C31.419 45.8712 32.2228 45.2571 33.2144 45.2571H40.0964C41.088 45.2571 41.8918 45.8712 41.8918 46.6286C41.8918 47.386 41.088 48 40.0964 48H33.2144C32.2228 48 31.419 47.386 31.419 46.6286Z" fill="#D4B580"/>
<path fill-rule="evenodd" clip-rule="evenodd" d="M5.23636 14H16.5147V33.3846H30.6126V14H41.8909V42H5.23636V14ZM7.85455 39C7.85455 38.4477 8.44065 38 9.16364 38H17.0182C17.7412 38 18.3273 38.4477 18.3273 39C18.3273 39.5523 17.7412 40 17.0182 40H9.16364C8.44065 40 7.85455 39.5523 7.85455 39ZM22.2545 38C21.5316 38 20.9455 38.4477 20.9455 39C20.9455 39.5523 21.5316 40 22.2545 40H24.8727C25.5957 40 26.1818 39.5523 26.1818 39C26.1818 38.4477 25.5957 38 24.8727 38H22.2545Z" fill="#D4B580"/>
</svg>
